<?xml version="1.0" standalone="no"?><!DOCTYPE svg PUBLIC "-//W3C//DTD SVG 1.1//EN" "http://www.w3.org/Graphics/SVG/1.1/DTD/svg11.dtd"><svg t="1571368733061" class="icon" viewBox="0 0 1115 1024" version="1.1" xmlns="http://www.w3.org/2000/svg" p-id="29037" xmlns:xlink="http://www.w3.org/1999/xlink" width="217.7734375" height="200"><defs><style type="text/css"></style></defs><path d="M1046.901 893.137H327.157c-111.234 0-117.777-62.16-150.492-366.415-9.815-98.147-22.901-222.466-45.802-382.773-3.272-29.444-16.358-35.987-19.63-39.259-19.63-13.086-58.888-3.271-65.431 0-16.358 6.543-35.987 0-42.53-19.63C-3.272 68.704 6.543 49.074 22.9 42.53c6.543-3.271 71.974-26.172 124.32 3.272 19.629 13.086 42.53 39.259 49.073 91.604 19.63 160.306 32.716 284.626 45.802 382.773 32.716 297.712 39.259 307.527 85.06 307.527h719.745c19.63 0 32.716 13.086 32.716 32.716s-13.087 32.715-32.716 32.715z" fill="#545454" p-id="29038"></path><path d="M392.588 762.275c-16.358 0-32.716-13.087-32.716-29.444 0-19.63 13.086-32.716 29.444-35.988 549.623-35.987 582.339-62.16 592.154-104.69 35.987-160.306 58.888-274.811 65.431-323.885 0-16.357 3.272-35.987-6.543-45.802-13.086-13.086-55.617-16.357-91.604-16.357H327.157c-19.63 0-32.716-13.087-32.716-32.716s13.086-32.716 32.716-32.716h621.597c55.617 0 107.962 3.272 140.677 35.988 19.63 22.9 29.444 55.616 22.901 98.147-6.543 65.43-39.259 215.923-65.431 330.428-22.901 94.875-78.518 117.776-654.313 157.035 3.271 0 3.271 0 0 0zM850.607 1024c-35.987 0-65.431-29.444-65.431-65.431s29.444-65.432 65.431-65.432 65.431 29.444 65.431 65.432S886.594 1024 850.607 1024z m-458.02 0c-35.986 0-65.43-29.444-65.43-65.431s29.444-65.432 65.43-65.432 65.432 29.444 65.432 65.432S428.575 1024 392.588 1024z" fill="#545454" p-id="29039"></path></svg>