<?xml version="1.0" standalone="no"?><!DOCTYPE svg PUBLIC "-//W3C//DTD SVG 1.1//EN" "http://www.w3.org/Graphics/SVG/1.1/DTD/svg11.dtd"><svg t="1577509869489" class="icon" viewBox="0 0 1024 1024" version="1.1" xmlns="http://www.w3.org/2000/svg" p-id="9212" xmlns:xlink="http://www.w3.org/1999/xlink" width="200" height="200"><defs><style type="text/css"></style></defs><path d="M977.728652 448.837448L578.865385 85.327364C551.667953 63.726394 492.081857 66.855664 492.081857 66.855664l439.220416 397.904429c74.831312 45.524846 23.428595 125.383662 23.428595 125.383662S613.790826 951.117063 620.264261 954.482717c29.258371 15.236006 39.97648 9.734712 64.683185-14.143115l294.417473-315.069839c60.366879-82.868359 52.662407-127.409808-1.636267-176.432315zM292.011168 430.343235c1.967818 12.128225 7.325849 22.442128 16.098654 30.919197 8.015557 7.740288 17.879206 12.600993 29.590945 14.569834 11.713786 1.991354 24.589025 0.260943 38.649252-5.145184l-78.458933-75.862805c-5.879917 11.546987-7.848759 23.390733-5.879918 35.518958z" fill="#c16f20" p-id="9213"></path><path d="M529.878694 498.749208c-13.325493-1.315972-28.737508 2.702552-46.283116 12.056594l88.441285 85.500302c9.224082-13.004175 13.183254-27.006074 11.903098-41.978066-1.280156-14.985296-7.586792-27.954679-18.920932-38.909172-10.149151-9.806343-21.862937-15.34243-35.140335-16.669658z" fill="#c16f20" p-id="9214"></path><path d="M907.688459 490.864634L438.827979 83.003436C409.237033 54.383608 11.630387 68.01814 11.630387 68.01814s-24.470321 440.98562 0.995677 444.601984l465.277885 425.373037c30.160927 29.176506 79.075986 29.176506 109.258403 0l293.208948-315.058583c41.043788-45.512566 79.241762-99.383498 27.317159-132.069944zM93.360829 269.038456c-31.488155-30.467919-31.488155-79.858816 0-110.315478 31.488155-30.467919 82.585927-30.467919 114.073059 0 31.511691 30.456662 31.511691 79.846536 0 110.315478-31.488155 30.444383-82.584903 30.444383-114.073059 0z m538.308179 448.515107l-41.281195-39.894616c-29.30749 22.218024-60.297294 33.326013-92.945879 33.326013-32.649608 0-66.13014-12.199856-100.440573-36.608779l52.828183-63.367213c14.511505 9.364275 29.472242 15.054881 44.883233 17.095353 15.412015 2.061962 29.187763 1.031493 41.281195-3.058662l-95.008864-91.879594c-38.102806 20.473287-72.626088 29.094642-103.615892 25.891694-30.990828-3.223415-58.731636-16.668635-83.225493-40.356127-24.777313-23.970948-37.795814-51.665707-39.00434-83.09451-1.209548-31.428803 9.911744-60.94914 33.338293-88.584547l-22.454408-21.706371 32.887015-31.796171 22.454408 21.718651c26.91193-20.463054 54.227042-31.025621 81.968873-31.689746 27.740808-0.651846 54.891168 8.073886 81.495082 26.200732l-49.864688 62.703087c-21.340027-13.870916-42.490743-16.799618-63.498196-8.761548l88.655156 85.726454c46.11734-25.583678 83.557044-37.155225 112.366184-34.749432 28.78458 2.418073 55.435567 15.46011 79.905888 39.135322 27.362184 26.460652 42.133609 56.751538 44.338834 90.871637 2.181689 34.131355-9.342786 67.505463-34.594913 100.094696l42.419112 40.996716-32.887015 31.786961z" fill="#c16f20" p-id="9215"></path></svg>