<?xml version="1.0" standalone="no"?><!DOCTYPE svg PUBLIC "-//W3C//DTD SVG 1.1//EN" "http://www.w3.org/Graphics/SVG/1.1/DTD/svg11.dtd"><svg t="1571190978573" class="icon" viewBox="0 0 1024 1024" version="1.1" xmlns="http://www.w3.org/2000/svg" p-id="4940" xmlns:xlink="http://www.w3.org/1999/xlink" width="200" height="200"><defs><style type="text/css"></style></defs><path d="M507.12381 980.114286c39.009524 0 78.019048-4.87619 117.028571-14.628572-4.87619-9.752381-14.628571-14.628571-29.257143-9.752381 14.628571-68.266667 24.380952-102.4 53.638095-131.657143 19.504762-14.628571 29.257143-39.009524 14.628572-58.514285-9.752381-14.628571-29.257143-24.380952-43.885715-19.504762-29.257143 4.87619-9.752381-34.133333-34.133333-39.009524s-58.514286-53.638095-92.647619-68.266667c-19.504762-9.752381-39.009524-34.133333-68.266667-34.133333-24.380952 0-63.390476 24.380952-63.390476 4.876191 0-58.514286-4.87619-97.52381-4.87619-117.028572 0-14.628571-9.752381-4.87619 29.257143-4.87619 19.504762 0 9.752381-39.009524 29.257142-39.009524s63.390476 19.504762 73.142858 9.752381c9.752381-4.87619 78.019048 175.542857 78.019047 29.257143 0-19.504762-9.752381-48.761905 0-63.390477 24.380952-39.009524 48.761905-82.895238 68.266667-126.780952-19.504762-4.87619-43.885714-4.87619-63.390476 0-9.752381 4.87619 4.87619 19.504762-9.752381 19.504762-48.761905 9.752381-92.647619-14.628571-78.019048-39.009524 14.628571-24.380952 73.142857-9.752381 78.019048-58.514286 4.87619-29.257143 4.87619-58.514286 4.87619-82.895238 63.390476 9.752381 58.514286-73.142857-24.380952-92.647619h-24.380953C292.571429 43.885714 102.4 199.92381 58.514286 419.352381c19.504762 19.504762 53.638095 19.504762 68.266666-4.876191-4.87619-4.87619-4.87619-4.87619 0-9.75238 19.504762 14.628571 48.761905 14.628571 48.761905 39.009523 0 82.895238 4.87619 170.666667 78.019048 170.666667 29.257143 9.752381 48.761905 34.133333 58.514285 63.390476 4.87619 19.504762 34.133333 0 58.514286 0 14.628571 0 0 24.380952 0 73.142857s112.152381 131.657143 112.152381 131.657143c0 29.257143 0 53.638095 4.876191 82.895238-14.628571 0-34.133333 0-48.761905 4.876191 24.380952 9.752381 43.885714 9.752381 68.266667 9.752381zM945.980952 355.961905s-4.87619 0-4.87619-4.876191c-29.257143-78.019048-102.4-19.504762-78.019048 43.885715-136.533333 102.4-97.52381 175.542857-53.638095 214.552381 24.380952 24.380952 43.885714 48.761905 58.514286 78.019047-14.628571 39.009524 43.885714 29.257143 82.895238-29.257143 19.504762-48.761905 24.380952-102.4 24.380952-156.038095v-43.885714c0-9.752381 0-19.504762-4.87619-24.380953-4.87619-19.504762-14.628571-48.761905-24.380953-78.019047z" fill="#ffffff" p-id="4941"></path><path d="M512 1024C229.180952 1024 0 794.819048 0 512S229.180952 0 512 0 1024 229.180952 1024 512 794.819048 1024 512 1024z m0-975.238095C258.438095 48.761905 48.761905 258.438095 48.761905 512S258.438095 975.238095 512 975.238095s463.238095-209.67619 463.238095-463.238095S765.561905 48.761905 512 48.761905z" fill="#ffffff" p-id="4942"></path></svg>