<?xml version="1.0" encoding="UTF-8"?>
<svg width="44px" height="44px" viewBox="0 0 44 44" version="1.1" xmlns="http://www.w3.org/2000/svg" xmlns:xlink="http://www.w3.org/1999/xlink">
    <!-- Generator: Sketch 60 (88103) - https://sketch.com -->
    <title>首页</title>
    <desc>Created with Sketch.</desc>
    <g id="整合" stroke="none" stroke-width="1" fill="none" fill-rule="evenodd">
        <g id="首页" transform="translate(-353.000000, -1250.000000)">
            <g id="tab-bar" transform="translate(0.000000, 1236.000000)">
                <g id="编组-4" transform="translate(353.000000, 14.000000)">
                    <g id="首页">
                        <rect id="矩形" fill="#D8D8D8" opacity="0" x="0" y="0" width="44" height="44"></rect>
                        <g transform="translate(0.000000, 0.846154)" fill="#0069B8" fill-rule="nonzero" id="路径">
                            <path d="M43.7103018,20.0011329 C43.2224299,21.371927 41.880782,22.3688682 40.2951982,22.3688682 L39.0755183,22.3688682 L39.0755183,37.3229863 C39.0755183,40.0645746 36.8800945,42.3076923 34.1967988,42.3076923 L25.6590396,42.3076923 L25.6590396,32.3382803 C25.6590396,31.5905744 25.1711677,31.0921038 24.4393598,31.0921038 L19.5606402,31.0921038 C18.8288323,31.0921038 18.3409604,31.5905744 18.3409604,32.3382803 L18.3409604,42.3076923 L9.80320121,42.3076923 C7.11990547,42.3076923 4.92448169,40.0645746 4.92448169,37.3229863 L4.92448169,22.3688682 L3.70480181,22.3688682 C2.24118596,22.3688682 0.899538091,21.371927 0.289698151,20.0011329 C-0.320141788,18.5057211 0.0457621754,16.8856916 1.26544205,15.8887504 L19.5606402,0.934632378 C20.9022881,-0.311544126 23.0977119,-0.311544126 24.4393598,0.934632378 L42.7345579,15.8887504 C43.9542378,16.8856916 44.3201418,18.5057211 43.7103018,20.0011329 Z"></path>
                        </g>
                    </g>
                </g>
            </g>
        </g>
    </g>
</svg>