<?xml version="1.0" encoding="UTF-8"?>
<svg width="30px" height="30px" viewBox="0 0 30 30" version="1.1" xmlns="http://www.w3.org/2000/svg" xmlns:xlink="http://www.w3.org/1999/xlink">
    <!-- Generator: Sketch 60 (88103) - https://sketch.com -->
    <title>图标/侧边栏列表/优惠券</title>
    <desc>Created with Sketch.</desc>
    <g id="组件" stroke="none" stroke-width="1" fill="none" fill-rule="evenodd">
        <g id="图标/列表/优惠券">
            <g id="图标/侧边栏列表/优惠券">
                <rect id="矩形" fill="#D8D8D8" opacity="0" x="0" y="0" width="30" height="30"></rect>
                <g id="优惠券（我的）" transform="translate(0.000000, 3.409091)" fill-rule="nonzero" stroke="#787879" stroke-width="1.5">
                    <path d="M10.29393,1.32854828 L10.2935111,2.05238497 L10.2821049,2.20453857 C10.197588,2.85472614 9.70705776,3.40619537 8.96867969,3.40229469 L8.81058335,3.38213819 C8.18503439,3.25227491 7.79507212,2.65762544 7.79507221,2.00439387 L7.7947366,1.32852532 L2.76949319,1.32858446 C2.71309406,1.33100157 2.59422522,1.34230154 2.4355469,1.36843106 C2.16942706,1.41225294 1.90456168,1.48167941 1.66505993,1.57946676 C1.07793186,1.81918817 0.780795017,2.15459727 0.775805305,2.66354795 C0.771472537,3.10549027 0.768881222,3.55833277 0.767829657,4.01239345 L0.77428257,5.90844437 C1.20263023,6.15682985 1.70733995,6.53223018 2.21005721,7.05368709 C3.37467808,8.26172119 4.07371154,9.84542684 4.06430288,11.8100415 C4.06430288,13.4823425 3.51528419,14.9047304 2.57459569,16.0727007 C2.01112791,16.7723092 1.37700894,17.3029094 0.756400683,17.6882296 L0.755087389,20.4155089 C0.755442888,20.4091669 0.755442888,20.4091669 0.755057926,20.4184969 C0.745764879,20.692975 0.793003008,21.06654 0.939796743,21.4089732 C1.18770892,21.9872905 1.64346463,22.3033396 2.51512815,22.2908873 C2.64180364,22.2890776 2.80684369,22.2874257 3.01377949,22.2859016 L7.79551854,22.2764765 L7.79642664,21.1094681 L7.80703404,20.9566717 C7.88770786,20.2955303 8.37455902,19.7523492 9.04507212,19.7523492 C9.78930933,19.7523492 10.2950721,20.4120398 10.2950721,21.1545231 L10.2944137,22.2756472 L27.3719952,22.2908108 C28.3076762,22.2908108 28.8560629,21.7046693 29.1202978,20.9248617 L29.141226,20.8545854 L29.141226,17.7403924 C28.7092567,17.5159176 28.207096,17.1682923 27.7078222,16.6704699 C26.5362782,15.5023315 25.8335337,13.8905134 25.8335337,11.8100415 C25.8335337,8.73453252 27.2756659,6.84506945 29.1415585,5.88645717 L29.1435232,3.04171924 C29.0645022,2.1464664 28.5802875,1.32927229 27.3719952,1.32927229 L27.3719634,1.32927229 L10.29393,1.32854828 Z M-0.743389423,20.3505255 C-0.742814708,20.3367893 -0.74292126,20.3425264 -0.743389423,20.3677338 L-0.743389423,20.3505255 Z M9.04507212,12.8036313 C9.78930933,12.8036313 10.2950721,13.4633219 10.2950721,14.2058052 L10.2935111,15.9498209 L10.2821049,16.1019745 C10.197588,16.752162 9.70705776,17.3036313 9.04507212,17.3036313 C8.3008349,17.3036313 7.79507212,16.6439407 7.79507212,15.9014574 L7.79642664,14.1607502 L7.80703404,14.0079538 C7.88770786,13.3468123 8.37455902,12.8036313 9.04507212,12.8036313 Z M9.04507212,5.85491332 C9.78930933,5.85491332 10.2950721,6.51460391 10.2950721,7.25708723 L10.293602,8.99967611 L10.2823939,9.15417646 C10.1990277,9.81104607 9.70671451,10.3549133 9.04507212,10.3549133 C8.3008349,10.3549133 7.79507212,9.69522272 7.79507212,8.9527394 L7.79642664,7.21203223 L7.80703404,7.05923581 C7.88770786,6.39809437 8.37455902,5.85491332 9.04507212,5.85491332 Z" id="形状"></path>
                </g>
            </g>
        </g>
    </g>
</svg>