<?xml version="1.0" encoding="UTF-8"?>
<svg width="24px" height="24px" viewBox="0 0 24 24" version="1.1" xmlns="http://www.w3.org/2000/svg" xmlns:xlink="http://www.w3.org/1999/xlink">
    <!-- Generator: Sketch 60 (88103) - https://sketch.com -->
    <title>编组 9</title>
    <desc>Created with Sketch.</desc>
    <g id="整合" stroke="none" stroke-width="1" fill="none" fill-rule="evenodd">
        <g id="优惠券详情" transform="translate(-30.000000, -336.000000)">
            <g id="编组-3" transform="translate(30.000000, 172.000000)">
                <g id="编组-6">
                    <g id="编组-9" transform="translate(0.000000, 164.000000)">
                        <rect id="矩形" fill="#D8D8D8" opacity="0" x="0" y="0" width="24" height="24"></rect>
                        <g id="电--话" transform="translate(2.000000, 0.000000)" fill-rule="nonzero" stroke="#969798" stroke-width="1.5">
                            <path d="M12.5690922,17.4542775 C11.4677964,17.7767028 9.87816721,16.1463872 7.89577921,13.2469962 C5.75968845,10.1189178 4.83972609,7.9839108 5.95058859,7.29990048 C5.98090475,7.28000551 6.08138404,7.21878246 6.32090945,7.07313189 C6.32310878,7.07179036 6.32310878,7.07179036 6.32530759,7.07044902 C6.47549323,6.97882934 6.57601744,6.9167914 6.62847769,6.8829435 C8.22503301,5.87809399 8.37431987,4.95878085 7.11227988,2.59008348 C6.51781333,1.47324275 5.86822888,0.903873985 5.15187691,0.781069474 C4.45535387,0.662997904 3.83166643,0.875109321 2.60707862,1.66546227 L2.2373521,1.90531721 L1.89524182,2.1224411 C-0.171872188,3.39955363 0.941232975,9.51008016 4.79228741,15.1478793 C8.63808776,20.7789066 14.0692958,24.2493537 16.149518,22.9654959 C16.2187667,22.9229747 16.357233,22.84106 16.5670204,22.7180145 C16.5691249,22.7167802 16.5691249,22.7167802 16.5712293,22.715546 C16.6168486,22.6887912 16.9837518,22.4740657 17.004946,22.4613507 C18.0248642,21.8520319 18.4683981,21.4366776 18.690983,20.9018838 C18.9870502,20.1924951 18.7406265,19.3420865 17.8198426,18.2654957 C16.2776908,16.4622709 15.2732448,16.0654209 14.0927363,16.6026031 C13.9180115,16.6815111 13.732216,16.7817951 13.4873801,16.9280562 L12.6397754,17.4542775 L12.5690922,17.4542775 Z M6.76370969,8.56027108 C6.76043846,8.56232256 6.75772633,8.56403957 6.75547204,8.56548432 C6.7588631,8.56339519 6.76220515,8.56131125 6.7654989,8.5592329 Z" id="路径"></path>
                        </g>
                    </g>
                </g>
            </g>
        </g>
    </g>
</svg>