<?xml version="1.0" standalone="no"?><!DOCTYPE svg PUBLIC "-//W3C//DTD SVG 1.1//EN" "http://www.w3.org/Graphics/SVG/1.1/DTD/svg11.dtd"><svg t="1588299452340" class="icon" viewBox="0 0 1024 1024" version="1.1" xmlns="http://www.w3.org/2000/svg" p-id="2189" xmlns:xlink="http://www.w3.org/1999/xlink" width="200" height="200"><defs><style type="text/css"></style></defs><path d="M512.387 779.93c-24.834 0-45.039 20.201-45.039 45.041 0 24.834 20.205 45.036 45.039 45.036 24.838 0 45.043-20.202 45.043-45.036C557.43 800.131 537.225 779.93 512.387 779.93L512.387 779.93zM512.387 779.93" p-id="2190" fill="#8a8a8a"></path><path d="M735.214 71 289.563 71c-37.495 0-67.994 30.501-67.994 67.995l0 747.902c0 37.494 30.5 67.994 67.994 67.994l445.651 0c37.494 0 67.994-30.5 67.994-67.994L803.208 138.995C803.208 101.501 772.708 71 735.214 71L735.214 71zM289.563 116.328l445.651 0c12.5 0 22.667 10.167 22.667 22.667l0 560.323L266.897 699.318 266.897 138.995C266.897 126.495 277.063 116.328 289.563 116.328L289.563 116.328zM735.214 909.561 289.563 909.561c-12.5 0-22.666-10.169-22.666-22.664L266.897 748.525l490.983 0 0 138.371C757.881 899.396 747.714 909.561 735.214 909.561L735.214 909.561zM735.214 909.561" p-id="2191" fill="#8a8a8a"></path></svg>