<?xml version="1.0" encoding="UTF-8"?>
<svg width="24px" height="24px" viewBox="0 0 24 24" version="1.1" xmlns="http://www.w3.org/2000/svg" xmlns:xlink="http://www.w3.org/1999/xlink">
    <!-- Generator: Sketch 60 (88103) - https://sketch.com -->
    <title>时间</title>
    <desc>Created with Sketch.</desc>
    <g id="整合" stroke="none" stroke-width="1" fill="none" fill-rule="evenodd">
        <g id="优惠券详情" transform="translate(-30.000000, -906.000000)" fill="#EB5D76" fill-rule="nonzero">
            <g id="编组-3" transform="translate(30.000000, 172.000000)">
                <g id="编组-8" transform="translate(0.000000, 732.000000)">
                    <g id="时间" transform="translate(0.000000, 2.000000)">
                        <path d="M15.7014925,12.0614073 L12.4144989,12.0614073 L12.4144989,6.49552239 C12.4145553,6.11399524 12.2110454,5.76142548 11.8806426,5.57064563 C11.5502398,5.37986577 11.1431504,5.37986577 10.8127476,5.57064563 C10.4823448,5.76142548 10.2788349,6.11399524 10.2788913,6.49552239 L10.2788913,12.9995736 C10.2412507,13.3032621 10.3357117,13.6085054 10.5383055,13.8378507 C10.7408994,14.0671961 11.032154,14.1986003 11.3381663,14.1987207 L15.7014925,14.1987207 C16.2916953,14.1987207 16.7701493,13.7202668 16.7701493,13.130064 C16.7701493,12.5398612 16.2916953,12.0614073 15.7014925,12.0614073 L15.7014925,12.0614073 Z" id="路径"></path>
                        <path d="M15.0294243,0.40938167 C21.3977738,2.1149877 25.1776743,8.6602219 23.4720682,15.0285714 C21.7664622,21.3969209 15.221228,25.1768214 8.85287847,23.4712153 C2.48452895,21.7656093 -1.29537148,15.2203751 0.41023455,8.85202559 C2.11584058,2.48367607 8.66107478,-1.29622436 15.0294243,0.40938167 L15.0294243,0.40938167 Z M20.9279318,14.3488273 C22.2581255,9.38462347 19.3121782,4.28200609 14.3479744,2.95181237 C9.38377059,1.62161866 4.28115321,4.56756591 2.95095949,9.53176973 C1.65348632,14.4833643 4.59911654,19.5531064 9.5434198,20.8780933 C14.4877231,22.2030803 19.5737663,19.2856864 20.926226,14.3488273 L20.9279318,14.3488273 Z" id="形状"></path>
                    </g>
                </g>
            </g>
        </g>
    </g>
</svg>