<?xml version="1.0" encoding="UTF-8"?>
<svg width="25px" height="25px" viewBox="0 0 25 25" version="1.1" xmlns="http://www.w3.org/2000/svg" xmlns:xlink="http://www.w3.org/1999/xlink">
    <!-- Generator: Sketch 60 (88103) - https://sketch.com -->
    <title>编组 9</title>
    <desc>Created with Sketch.</desc>
    <g id="整合" stroke="none" stroke-width="1" fill="none" fill-rule="evenodd">
        <g id="优惠券详情" transform="translate(-30.000000, -385.000000)">
            <g id="编组-3" transform="translate(30.000000, 172.000000)">
                <g id="编组-6">
                    <g id="编组-9" transform="translate(0.000000, 213.000000)">
                        <rect id="矩形" fill="#D8D8D8" opacity="0" x="0" y="0" width="24" height="24"></rect>
                        <g id="编组-10" transform="translate(0.250875, 0.250022)" fill="#969798">
                            <path d="M14.7890592,0.402835951 C21.0559249,2.08126202 24.7755901,8.52219358 23.097164,14.7890592 C21.418738,21.0559249 14.9778064,24.7755901 8.71094076,23.097164 C2.4440751,21.418738 -1.27559012,14.9778064 0.402835951,8.71094076 C2.08126202,2.4440751 8.52219358,-1.27559012 14.7890592,0.402835951 L14.7890592,0.402835951 Z M21.6471368,14.4375235 C23.1130142,8.95593433 19.8665717,3.32150568 14.3960045,1.85267489 C8.92543733,0.38384409 3.30233801,3.63682748 1.83646064,9.11841665 C0.406641401,14.5860824 3.65273454,20.1842094 9.10137123,21.6472907 C14.5500079,23.1103721 20.1548424,19.888918 21.645257,14.4375235 L21.6471368,14.4375235 Z" id="形状" fill-rule="nonzero"></path>
                            <path d="M11.4991248,3.74997769 C11.9133384,3.74997769 12.2491248,4.08576413 12.2491248,4.49997769 L12.2491248,11.3549777 L17.0088904,11.3556906 C17.423104,11.3556906 17.7588904,11.691477 17.7588904,12.1056906 C17.7588904,12.5199041 17.423104,12.8556906 17.0088904,12.8556906 L11.5088904,12.8556906 C11.1000914,12.8556906 10.7676826,12.5286255 10.759062,12.1218935 C10.7525056,12.0823126 10.7491248,12.0415399 10.7491248,11.9999777 L10.7491248,4.49997769 C10.7491248,4.08576413 11.0849113,3.74997769 11.4991248,3.74997769 Z" id="形状结合"></path>
                        </g>
                    </g>
                </g>
            </g>
        </g>
    </g>
</svg>