<?xml version="1.0" encoding="UTF-8"?>
<svg width="20px" height="37px" viewBox="0 0 20 37" version="1.1" xmlns="http://www.w3.org/2000/svg" xmlns:xlink="http://www.w3.org/1999/xlink">
    <!-- Generator: Sketch 52.5 (67469) - http://www.bohemiancoding.com/sketch -->
    <title>返回</title>
    <desc>Created with Sketch.</desc>
    <g id="Page-2-Copy-2" stroke="none" stroke-width="1" fill="none" fill-rule="evenodd">
        <g id="1.9订单" transform="translate(-46.000000, -64.000000)">
            <g id="返回" transform="translate(32.000000, 58.000000)">
                <rect id="矩形" fill="#D8D8D8" opacity="0" x="0" y="0" width="48" height="48"></rect>
                <g id="分组" transform="translate(13.000000, 5.000000)" fill="#9B9B9B">
                    <path d="M-0.337450605,25.9451581 L22.6625494,25.9451581 C23.4909765,25.9451581 24.1625494,26.616731 24.1625494,27.4451581 L24.1625494,27.4451581 C24.1625494,28.2735852 23.4909765,28.9451581 22.6625494,28.9451581 L-0.337450605,28.9451581 C-1.16587773,28.9451581 -1.83745061,28.2735852 -1.83745061,27.4451581 L-1.83745061,27.4451581 C-1.83745061,26.616731 -1.16587773,25.9451581 -0.337450605,25.9451581 Z" id="矩形" transform="translate(11.162549, 27.445158) rotate(45.000000) translate(-11.162549, -27.445158) "></path>
                    <path d="M-0.24250425,9.60532184 L22.7574958,9.60532184 C23.5859229,9.60532184 24.2574958,10.2768947 24.2574958,11.1053218 L24.2574958,11.1053218 C24.2574958,11.933749 23.5859229,12.6053218 22.7574958,12.6053218 L-0.24250425,12.6053218 C-1.07093137,12.6053218 -1.74250425,11.933749 -1.74250425,11.1053218 L-1.74250425,11.1053218 C-1.74250425,10.2768947 -1.07093137,9.60532184 -0.24250425,9.60532184 Z" id="矩形" transform="translate(11.257496, 11.105322) rotate(135.000000) translate(-11.257496, -11.105322) "></path>
                </g>
            </g>
        </g>
    </g>
</svg>