<?xml version="1.0" encoding="UTF-8"?>
<svg width="48px" height="32px" viewBox="0 0 48 32" version="1.1" xmlns="http://www.w3.org/2000/svg" xmlns:xlink="http://www.w3.org/1999/xlink">
    <!-- Generator: Sketch 52.5 (67469) - http://www.bohemiancoding.com/sketch -->
    <title>中国</title>
    <desc>Created with Sketch.</desc>
    <g id="Page-2" stroke="none" stroke-width="1" fill="none" fill-rule="evenodd">
        <g id="1.1home-" transform="translate(-670.000000, -68.000000)">
            <g id="中国" transform="translate(670.000000, 68.000000)">
                <polygon id="路径" fill="#DE2910" points="0 0 48 0 48 32 0 32"></polygon>
                <path d="M8.16905962,3.87923975 L9.22591994,6.99043929 L12.6458115,6.99043929 L9.88171532,8.91740929 L10.9331558,12.0338028 L8.16905962,10.1120268 L5.40496339,12.0338028 L6.45640392,8.91740929 L3.69230769,6.99563328 L7.11761909,6.99563328 L8.16905962,3.87923975 Z M17.0792051,2.25352113 L17.0087477,3.32867689 L18.0547685,3.72861406 L16.9599696,3.9987015 L16.8895122,5.07385727 L16.2933346,4.15971517 L15.2039555,4.42980261 L15.9247884,3.60395832 L15.3286108,2.68981622 L16.3692118,3.0845594 L17.0792051,2.25352113 Z M20.9110012,5.73868789 L20.4015404,6.69957589 L21.1982505,7.46309231 L20.0871922,7.29169066 L19.5723115,8.25777266 L19.398878,7.18781088 L18.2878197,7.02160323 L19.2959019,6.53336824 L19.1170486,5.46860045 L19.9083389,6.22692288 L20.9110012,5.73868789 Z M19.7620044,10.1068328 L20.1034516,11.1352427 L21.2307692,11.1352427 L20.3202434,11.7689094 L20.6616906,12.7921252 L19.7511648,12.1532646 L18.8460588,12.7869313 L19.1929257,11.7689094 L18.2823999,11.1352427 L19.4097176,11.1352427 L19.7620044,10.1068328 Z M17.0737853,13.399822 L16.9979081,14.4749777 L18.0439289,14.8749149 L16.9599696,15.1450024 L16.8840924,16.2253521 L16.282495,15.31121 L15.1931159,15.5761035 L15.908529,14.7502592 L15.3123514,13.8361171 L16.363792,14.2360542 L17.0737853,13.399822 Z" id="形状" fill="#FFDE00" fill-rule="nonzero"></path>
            </g>
        </g>
    </g>
</svg>