<?xml version="1.0" encoding="UTF-8"?>
<svg width="42px" height="39px" viewBox="0 0 42 39" version="1.1" xmlns="http://www.w3.org/2000/svg" xmlns:xlink="http://www.w3.org/1999/xlink">
    <!-- Generator: Sketch 60 (88103) - https://sketch.com -->
    <title>日历</title>
    <desc>Created with Sketch.</desc>
    <g id="Page-1" stroke="none" stroke-width="1" fill="none" fill-rule="evenodd">
        <g id="1.3注册" transform="translate(-51.000000, -453.000000)">
            <g id="日历" transform="translate(48.000000, 449.000000)">
                <rect id="矩形-copy" fill="#D8D8D8" opacity="0" x="0" y="0" width="48" height="48"></rect>
                <g id="日历-日期" transform="translate(3.000000, 4.000000)" fill="#333333" fill-rule="nonzero">
                    <path d="M19.4972922,24.0123207 L22.4942022,24.0123207 C23.3312298,24.0123207 23.9926572,23.3508933 23.9926572,22.5138657 C23.9926572,21.6768382 23.3312298,21.0154107 22.4942022,21.0154107 L19.4972922,21.0154107 C18.6602646,21.0154107 17.9988372,21.6768382 17.9988372,22.5138657 C17.9988372,23.3508933 18.6602646,24.0123207 19.4972922,24.0123207 Z M19.4972922,30.0061408 L22.4942022,30.0061408 C23.3312298,30.0061408 23.9926572,29.3447134 23.9926572,28.5076858 C23.9926572,27.6706582 23.3312298,27.0092308 22.4942022,27.0092308 L19.4972922,27.0092308 C18.6602646,27.0092308 17.9988372,27.6706582 17.9988372,28.5076858 C17.9988372,29.3447134 18.6602646,30.0061408 19.4972922,30.0061408 Z M35.9802973,3.03395066 L29.9864772,3.03395066 L29.9864772,1.53549566 C29.9864772,0.69846807 29.3250498,0.0370406561 28.4880222,0.0370406561 C27.6509946,0.0370406561 26.9895672,0.69846807 26.9895672,1.53549566 L26.9895672,3.03395066 L15.0019272,3.03395066 L15.0019272,1.53549566 C15.0019272,0.69846807 14.3404998,0.0370406561 13.5034722,0.0370406561 C12.6664446,0.0370406561 12.0050172,0.69846807 12.0050172,1.53549566 L12.0050172,3.03395066 L6.01119712,3.03395066 C2.71576677,3.03395066 0.017377121,5.73234035 0.017377121,9.0277707 L0.017377121,33.0030508 C0.017377121,36.2984811 2.71576682,38.9968708 6.01119712,38.9968708 L35.9802973,38.9968708 C39.2757276,38.9968708 41.9741173,36.2984811 41.9741173,33.0030508 L41.9741173,9.0277707 C41.9741173,5.73234035 39.2757276,3.03395066 35.9802973,3.03395066 L35.9802973,3.03395066 Z M38.9772073,33.0030508 C38.9772073,34.6536926 37.6309391,35.9999608 35.9802973,35.9999608 L6.01119712,35.9999608 C4.3605553,35.9999608 3.01428712,34.6536926 3.01428712,33.0030508 L3.01428712,15.0215907 L38.9772073,15.0215907 L38.9772073,33.0030508 Z M38.9772073,12.0246807 L3.01428712,12.0246807 L3.01428712,9.0277707 C3.01428712,7.37712888 4.3605553,6.0308607 6.01119712,6.0308607 L12.0050172,6.0308607 L12.0050172,7.5293157 C12.0050172,8.36634329 12.6664446,9.0277707 13.5034722,9.0277707 C14.3404998,9.0277707 15.0019272,8.36634329 15.0019272,7.5293157 L15.0019272,6.0308607 L26.9895672,6.0308607 L26.9895672,7.5293157 C26.9895672,8.36634329 27.6509946,9.0277707 28.4880222,9.0277707 C29.3250498,9.0277707 29.9864772,8.36634329 29.9864772,7.5293157 L29.9864772,6.0308607 L35.9802973,6.0308607 C37.6309391,6.0308607 38.9772073,7.37712888 38.9772073,9.0277707 L38.9772073,12.0246807 Z M10.5065621,30.0061408 L13.5034722,30.0061408 C14.3404998,30.0061408 15.0019272,29.3447134 15.0019272,28.5076858 C15.0019272,27.6706582 14.3404998,27.0092308 13.5034722,27.0092308 L10.5065621,27.0092308 C9.66953454,27.0092308 9.00810712,27.6706582 9.00810712,28.5076858 C9.00810712,29.3447134 9.66953454,30.0061408 10.5065621,30.0061408 Z M28.4880222,24.0123207 L31.4849322,24.0123207 C32.3219598,24.0123207 32.9833872,23.3508933 32.9833872,22.5138657 C32.9833872,21.6768382 32.3219598,21.0154107 31.4849322,21.0154107 L28.4880222,21.0154107 C27.6509946,21.0154107 26.9895672,21.6768382 26.9895672,22.5138657 C26.9895672,23.3508933 27.6509946,24.0123207 28.4880222,24.0123207 Z M10.5065621,24.0123207 L13.5034722,24.0123207 C14.3404998,24.0123207 15.0019272,23.3508933 15.0019272,22.5138657 C15.0019272,21.6768382 14.3404998,21.0154107 13.5034722,21.0154107 L10.5065621,21.0154107 C9.66953454,21.0154107 9.00810712,21.6768382 9.00810712,22.5138657 C9.00810712,23.3508933 9.66953454,24.0123207 10.5065621,24.0123207 Z M28.4880222,30.0061408 L31.4849322,30.0061408 C32.3219598,30.0061408 32.9833872,29.3447134 32.9833872,28.5076858 C32.9833872,27.6706582 32.3219598,27.0092308 31.4849322,27.0092308 L28.4880222,27.0092308 C27.6509946,27.0092308 26.9895672,27.6706582 26.9895672,28.5076858 C26.9895672,29.3447134 27.6509946,30.0061408 28.4880222,30.0061408 Z" id="形状"></path>
                </g>
            </g>
        </g>
    </g>
</svg>