<?xml version="1.0" encoding="UTF-8"?>
<svg width="44px" height="36px" viewBox="0 0 44 36" version="1.1" xmlns="http://www.w3.org/2000/svg" xmlns:xlink="http://www.w3.org/1999/xlink">
    <!-- Generator: Sketch 60 (88103) - https://sketch.com -->
    <title>邮箱</title>
    <desc>Created with Sketch.</desc>
    <g id="Page-1" stroke="none" stroke-width="1" fill="none" fill-rule="evenodd">
        <g id="1.3注册" transform="translate(-50.000000, -568.000000)">
            <g id="邮箱" transform="translate(48.000000, 562.000000)">
                <rect id="矩形-copy" fill="#D8D8D8" opacity="0" x="0" y="0" width="48" height="48"></rect>
                <g transform="translate(3.000000, 7.000000)" fill="#333333" fill-rule="nonzero" id="形状" stroke="#333333" stroke-width="0.5">
                    <path d="M36.75,34.1831875 L5.25,34.1831875 C2.352,34.1831875 0,31.8311875 0,28.9331875 L0,5.3011875 C0,2.4031875 2.352,0.0511875 5.25,0.0511875 L36.75,0.0511875 C39.648,0.0511875 42,2.4031875 42,5.3011875 L42,28.9261875 C42,31.8311875 39.648,34.1831875 36.75,34.1831875 Z M6.566,2.6761875 L21,15.2271875 L35.434,2.6761875 L6.566,2.6761875 Z M39.375,5.3011875 C39.375,4.5451875 39.053,3.8731875 38.542,3.3901875 L21,18.4261875 L3.451,3.3901875 C2.94,3.8731875 2.618,4.5451875 2.618,5.3011875 L2.618,28.9261875 C2.618,30.3751875 3.794,31.5511875 5.243,31.5511875 L36.743,31.5511875 C38.192,31.5511875 39.368,30.3751875 39.368,28.9261875 L39.368,5.3011875 L39.375,5.3011875 Z"></path>
                </g>
            </g>
        </g>
    </g>
</svg>