<?xml version="1.0" standalone="no"?><!DOCTYPE svg PUBLIC "-//W3C//DTD SVG 1.1//EN" "http://www.w3.org/Graphics/SVG/1.1/DTD/svg11.dtd"><svg t="1576479993946" class="icon" viewBox="0 0 1024 1024" version="1.1" xmlns="http://www.w3.org/2000/svg" p-id="1302" xmlns:xlink="http://www.w3.org/1999/xlink" width="200" height="200"><defs><style type="text/css"></style></defs><path d="M663.27259 1023.999069a349.090592 349.090592 0 1 1 349.090591-349.090592 349.090592 349.090592 0 0 1-349.090591 349.090592z m0-605.090359a255.999767 255.999767 0 1 0 255.999767 255.999767 255.999767 255.999767 0 0 0-255.999767-255.999767z m0 93.090825a162.908943 162.908943 0 0 0-162.908943 162.908942 23.272706 23.272706 0 0 1-46.545412 0 209.454355 209.454355 0 0 1 209.454355-209.454355 23.272706 23.272706 0 0 1 0 46.545413z m-76.101749-225.23325a392.121825 392.121825 0 0 0-76.520658 23.086524A693.712824 693.712824 0 0 1 360.72741 325.817886c-192.791097 0-349.090592-72.936661-349.090591-162.908943s156.299494-162.908943 349.090591-162.908943 349.090592 72.936661 349.090592 162.908943c0 49.617409-47.685775 93.975187-122.647161 123.857342zM360.72741 93.090824c-141.38169 0-255.999767 31.255244-255.999767 69.818119s114.618078 69.818118 255.999767 69.818118 255.999767-31.255244 255.999768-69.818118-114.618078-69.818118-255.999768-69.818119zM58.717503 314.181533a302.801179 302.801179 0 0 0 83.153379 45.358504c-23.412342 10.542536-37.23633 22.87707-37.23633 36.095967 0 35.560695 97.605729 64.861032 223.720524 69.213028a392.308007 392.308007 0 0 0-42.100325 89.902464C129.21053 538.832965 11.636819 473.69266 11.636819 395.636004a107.775902 107.775902 0 0 1 47.080684-81.454471z m0 232.727061a302.801179 302.801179 0 0 0 83.153379 45.358504c-23.412342 10.542536-37.23633 22.87707-37.23633 36.095967 0 29.695973 68.049393 54.970132 163.839851 65.163577a395.310186 395.310186 0 0 0 15.47635 93.765733c-155.927131-16.290894-272.290662-81.175199-272.290662-158.836219A107.775902 107.775902 0 0 1 58.717503 546.908594z m0 232.727061a302.801179 302.801179 0 0 0 83.153379 45.358504c-23.412342 10.542536-37.23633 22.87707-37.23633 36.095967 0 38.562874 114.618078 69.818118 255.999767 69.818119h1.186908a396.89273 396.89273 0 0 0 102.67918 85.783194A724.106978 724.106978 0 0 1 360.72741 1023.999069c-192.791097 0-349.090592-72.936661-349.090591-162.908943a107.775902 107.775902 0 0 1 47.080684-81.454471z" p-id="1303" fill="#ffffff"></path></svg>