<?xml version="1.0" encoding="UTF-8"?>
<svg width="30px" height="32px" viewBox="0 0 30 32" version="1.1" xmlns="http://www.w3.org/2000/svg" xmlns:xlink="http://www.w3.org/1999/xlink">
    <!-- Generator: Sketch 60 (88103) - https://sketch.com -->
    <title>积分</title>
    <desc>Created with Sketch.</desc>
    <g id="Page-1" stroke="none" stroke-width="1" fill="none" fill-rule="evenodd">
        <g id="1.4积分" transform="translate(-72.000000, -377.000000)" fill="#004B92">
            <g id="分组-2" transform="translate(72.000000, 356.000000)">
                <g id="积分" transform="translate(0.000000, 21.000000)">
                    <path d="M28.3230726,21.4451585 C29.073321,22.3537035 29.4884155,23.3530162 29.4884155,24.4022022 C29.4884155,28.5862324 22.8882509,31.9780633 14.7465438,31.9780633 C6.60483676,31.9780633 0.0046721106,28.5862324 0.0046721106,24.4022022 C0.0046721106,23.3530539 0.419766599,22.3537035 1.17001508,21.4451585 C3.41174411,24.1598908 8.64639388,26.063976 14.7465438,26.063976 C20.8466937,26.063976 26.0813434,24.1598908 28.3230726,21.4451585 Z M28.2348324,12.9384942 C29.0406507,13.8746921 29.4884155,14.9104477 29.4884155,16 C29.4884155,20.1840302 22.8882508,23.5758612 14.7465438,23.5758612 C6.60483672,23.5758612 0.00467207373,20.1840303 0.00467207373,16 C0.00467207373,14.9104477 0.452474654,13.8746921 1.25825519,12.9384942 C3.54683941,15.5974681 8.72497626,17.4528496 14.7465438,17.4528496 C20.7681113,17.4528496 25.9462481,15.5974681 28.2348324,12.9384942 Z M14.7465438,0.0218989393 C22.8882547,0.0218989393 29.4884155,3.41372752 29.4884155,7.59776011 C29.4884155,10.3043546 26.6786307,12.8053512 22.1174797,14.1586484 C17.5563287,15.5119457 11.9367589,15.5119457 7.37560786,14.1586484 C2.81445685,12.8053512 0.00467207373,10.3043546 0.00467207373,7.59776011 C0.00467207373,3.41372752 6.60483285,0.0218989393 14.7465438,0.0218989393 Z" id="合并形状"></path>
                </g>
            </g>
        </g>
    </g>
</svg>