<?xml version="1.0" encoding="UTF-8"?>
<svg width="38px" height="48px" viewBox="0 0 38 48" version="1.1" xmlns="http://www.w3.org/2000/svg" xmlns:xlink="http://www.w3.org/1999/xlink">
    <!-- Generator: Sketch 60 (88103) - https://sketch.com -->
    <title>密码</title>
    <desc>Created with Sketch.</desc>
    <g id="Page-1" stroke="none" stroke-width="1" fill="none" fill-rule="evenodd">
        <g id="1.2登录" transform="translate(-53.000000, -569.000000)">
            <g id="密码" transform="translate(48.000000, 569.000000)">
                <rect id="矩形-copy" fill="#D8D8D8" opacity="0" x="0" y="0" width="48" height="48"></rect>
                <path d="M24.0001591,-1.13686838e-13 C30.62796,-1.13686838e-13 36.0001451,5.60560267 36.0001451,12.5218547 L36.0001451,12.5218547 L36.0001451,17.7391557 L38.000134,17.7391557 C40.7608867,17.7391557 43,20.0746113 43,22.9564567 L43,22.9564567 L43,42.7829757 C43,45.6645444 40.7608336,48 38.0000278,48 L38.0000278,48 L9.99997206,48 C7.23831765,48 5,45.6642123 5,42.7829757 L5,42.7829757 L5,22.9564567 C5,20.074888 7.23837067,17.7391557 9.99997206,17.7391557 L9.99997206,17.7391557 L11.9999609,17.7391557 L11.9999609,12.5218547 C11.9999609,5.60560267 17.372146,-1.13686838e-13 24.0001591,-1.13686838e-13 Z M36.8879505,20.8620636 L11.1122087,20.8620636 C9.58664959,20.8620636 8.35050116,22.152011 8.35050116,23.7439645 L8.35050116,23.7439645 L8.35050116,41.9951359 C8.35050116,43.5869787 9.58664959,44.8766492 11.1122087,44.8766492 L11.1122087,44.8766492 L36.8879505,44.8766492 C38.4134565,44.8766492 39.6496049,43.5869787 39.6496049,41.9951359 L39.6496049,41.9951359 L39.6496049,23.7439645 C39.6496049,22.152011 38.4134566,20.8620636 36.8879505,20.8620636 L36.8879505,20.8620636 Z M24.0002122,27.1302422 C25.6573746,27.1302422 27.0002485,28.5315045 27.0002485,30.2607336 C27.0002485,31.1881185 26.6140847,32.0206836 26.0002541,32.5939197 L26.0002541,32.5939197 L26.0002541,35.4780347 C26.0002541,36.6309279 25.1047572,37.5651212 24.0002122,37.5651212 C22.895508,37.5651212 22.000282,36.6309279 22.000282,35.4780347 L22.000282,35.4780347 L22.000282,32.5939197 C21.3864457,32.0206836 21.000282,31.1881184 21.000282,30.2607336 C21.000282,28.5315045 22.3431028,27.1302422 24.0002122,27.1302422 Z M24.0001592,2.88760213 C19.0426227,2.88760213 15.0230185,7.08175758 15.0230185,12.2547762 L15.0230185,12.2547762 L15.0241855,12.2547762 L15.0237081,17.8233477 L32.9767163,17.8233477 L32.9771937,12.2547762 C32.9771937,7.08175752 28.9577487,2.88760213 24.0001592,2.88760213 Z" id="合并形状" fill="#333333"></path>
            </g>
        </g>
    </g>
</svg>