<?xml version="1.0" encoding="UTF-8"?>
<svg width="39px" height="44px" viewBox="0 0 39 44" version="1.1" xmlns="http://www.w3.org/2000/svg" xmlns:xlink="http://www.w3.org/1999/xlink">
    <!-- Generator: Sketch 60 (88103) - https://sketch.com -->
    <title>账号</title>
    <desc>Created with Sketch.</desc>
    <g id="Page-1" stroke="none" stroke-width="1" fill="none" fill-rule="evenodd">
        <g id="1.2登录" transform="translate(-53.000000, -458.000000)">
            <g id="账号" transform="translate(48.000000, 456.000000)">
                <rect id="矩形" fill="#D8D8D8" opacity="0" x="0" y="0" width="48" height="48"></rect>
                <g id="账号-(3)" transform="translate(5.000000, 2.000000)" fill="#333333" fill-rule="nonzero">
                    <path d="M25.8072972,24.6170931 C29.6664014,22.3105153 32.2834945,18.096472 32.2834945,13.2614483 C32.2834945,5.98677587 26.3394301,0.0427616303 19.0648079,0.0427616303 C11.7901355,0.0427616303 5.84607112,5.98677587 5.84607117,13.2614483 C5.84607117,18.096472 8.46316422,22.3105153 12.3222684,24.6170931 C5.13624308,27.3230337 0.0351277773,34.2871907 0.0351277773,42.4047119 C0.0351277773,43.2475607 0.744755318,43.9572384 1.5876542,43.9572384 C2.43050297,43.9572384 3.14018063,43.2475607 3.14018063,42.4047119 C3.14018063,33.6217364 10.2817822,26.4359116 19.1091815,26.4359116 C27.8919566,26.4359116 35.0779819,33.5775131 35.0779819,42.4047119 C35.0779819,43.2475607 35.7876094,43.9572384 36.6305083,43.9572384 C37.4733571,43.9572384 38.1830347,43.2475607 38.1830347,42.4047119 C38.0944378,34.2871407 32.993122,27.3230338 25.8072972,24.6170931 Z M8.95117415,13.2613981 C8.95117415,7.67227285 13.4757328,3.14781453 19.064858,3.14781453 C24.653883,3.14781453 29.1784416,7.67232302 29.1784416,13.2613981 C29.1784416,18.8504731 24.653883,23.3750318 19.0648079,23.3750318 C13.4757328,23.3750318 8.95117415,18.8505233 8.95117415,13.2613981 Z" id="形状"></path>
                </g>
            </g>
        </g>
    </g>
</svg>