<?xml version="1.0" encoding="UTF-8"?>
<svg width="100px" height="101px" viewBox="0 0 100 101" version="1.1" xmlns="http://www.w3.org/2000/svg" xmlns:xlink="http://www.w3.org/1999/xlink">
    <!-- Generator: Sketch 52.5 (67469) - http://www.bohemiancoding.com/sketch -->
    <title>home</title>
    <desc>Created with Sketch.</desc>
    <defs>
        <circle id="path-1" cx="45" cy="45" r="45"></circle>
        <filter x="-11.7%" y="-6.1%" width="123.3%" height="124.4%" filterUnits="objectBoundingBox" id="filter-2">
            <feOffset dx="0" dy="6" in="SourceAlpha" result="shadowOffsetOuter1"></feOffset>
            <feGaussianBlur stdDeviation="2.5" in="shadowOffsetOuter1" result="shadowBlurOuter1"></feGaussianBlur>
            <feComposite in="shadowBlurOuter1" in2="SourceAlpha" operator="out" result="shadowBlurOuter1"></feComposite>
            <feColorMatrix values="0 0 0 0 0   0 0 0 0 0   0 0 0 0 0  0 0 0 0.2 0" type="matrix" in="shadowBlurOuter1"></feColorMatrix>
        </filter>
    </defs>
    <g id="Page-1" stroke="none" stroke-width="1" fill="none" fill-rule="evenodd">
        <g id="1.6自助餐-订单" transform="translate(-27.000000, -1114.000000)">
            <g id="home" transform="translate(32.000000, 1114.000000)">
                <g id="椭圆形">
                    <use fill="black" fill-opacity="1" filter="url(#filter-2)" xlink:href="#path-1"></use>
                    <circle stroke="#EDEDED" stroke-width="1" stroke-linejoin="square" fill="#FFFFFF" fill-rule="evenodd" cx="45" cy="45" r="44.5"></circle>
                </g>
                <g id="首页-(2)" transform="translate(21.000000, 22.000000)" fill="#2394FF" fill-rule="nonzero">
                    <path d="M30.8202745,45.8614566 L27.7763223,45.8614566 L27.7763223,34.5485004 C27.7623375,34.3073443 27.5624888,34.1190658 27.3209279,34.1194709 L22.1198442,34.1194709 C21.8791538,34.1189904 21.6796508,34.3058932 21.6644498,34.5461036 L21.6644498,45.8614566 L10.3802554,45.8614566 C9.390335,45.8539227 8.44447453,45.4511023 7.75307951,44.7426025 C7.0616845,44.0341027 6.68209526,43.0786822 6.69875098,42.0888733 L6.69875098,24.6304892 L3.29288006,24.6304892 C1.92067639,24.6977394 0.673499155,23.8374817 0.248927872,22.5308813 C-0.249503409,21.2284067 0.129154871,19.7531772 1.1932721,18.8517737 L21.9400833,0.844519522 C23.1115562,-0.255864903 24.9366677,-0.255864903 26.1081406,0.844519522 L46.8213964,18.8517737 C47.875994,19.7625626 48.2403095,21.2342056 47.7321852,22.5308813 C47.3080813,23.8356945 46.063491,24.6955218 44.6930267,24.6304892 L41.3159175,24.6304892 L41.3159175,42.0888733 C41.3325732,43.0786822 40.952984,44.0341027 40.261589,44.7426025 C39.570194,45.4511023 38.6243335,45.8539227 37.6344131,45.8614566 L30.8226713,45.8614566 L30.8202745,45.8614566 Z M30.8202745,42.8175044 L37.6320163,42.8175044 C38.0063025,42.7857192 38.2887495,42.4641315 38.2719653,42.0888733 L38.2719653,21.5889339 L44.7505502,21.5889339 C44.932708,21.3756175 44.9638665,21.2533801 44.7505502,21.1335394 L24.0061358,3.12388845 L3.20180118,21.1311426 C3.14111556,21.2226628 3.14111556,21.3416208 3.20180118,21.433141 L9.83138524,21.433141 L9.83138524,41.9354773 C9.81460104,42.3107355 10.0970481,42.6323231 10.4713342,42.6641084 L18.6804179,42.6641084 L18.6804179,34.5461036 C18.6975185,32.625647 20.2592318,31.0778394 22.1797645,31.0779155 L27.3185311,31.0779155 C29.2390638,31.0778394 30.800777,32.625647 30.8178777,34.5461036 L30.8178777,42.8199012 L30.8202745,42.8175044 Z" id="形状"></path>
                </g>
            </g>
        </g>
    </g>
</svg>