<?xml version="1.0" standalone="no"?><!DOCTYPE svg PUBLIC "-//W3C//DTD SVG 1.1//EN" "http://www.w3.org/Graphics/SVG/1.1/DTD/svg11.dtd"><svg t="1571368167776" class="icon" viewBox="0 0 1024 1024" version="1.1" xmlns="http://www.w3.org/2000/svg" p-id="2562" xmlns:xlink="http://www.w3.org/1999/xlink" width="200" height="200"><defs><style type="text/css"></style></defs><path d="M384 469.333333l171.093333-170.666666L725.333333 469.333333v341.333334H384z" fill="#19AAF7" opacity=".554" p-id="2563"></path><path d="M313.088 761.429333h397.824v-221.568a24.746667 24.746667 0 0 1 24.832-24.618666 24.746667 24.746667 0 0 1 24.874667 24.618666v246.186667a24.746667 24.746667 0 0 1-24.874667 24.618667H288.213333a24.746667 24.746667 0 0 1-24.832-24.618667v-246.186667a24.746667 24.746667 0 0 1 24.832-24.618666 24.746667 24.746667 0 0 1 24.874667 24.618666v221.568zM512 187.477333l-298.837333 295.893334a25.045333 25.045333 0 0 1-35.2 0 24.448 24.448 0 0 1 0-34.816l316.416-313.301334a25.045333 25.045333 0 0 1 35.2 0l316.458666 313.301334a24.490667 24.490667 0 0 1 0 34.901333 25.088 25.088 0 0 1-35.2 0L512 187.52v-0.042667z" fill="#555555" p-id="2564"></path></svg>