<?xml version="1.0" encoding="UTF-8"?>
<svg width="48px" height="32px" viewBox="0 0 48 32" version="1.1" xmlns="http://www.w3.org/2000/svg" xmlns:xlink="http://www.w3.org/1999/xlink">
    <!-- Generator: Sketch 52.5 (67469) - http://www.bohemiancoding.com/sketch -->
    <title>日本</title>
    <desc>Created with Sketch.</desc>
    <g id="Page-2" stroke="none" stroke-width="1" fill="none" fill-rule="evenodd">
        <g id="1.2语言-" transform="translate(-32.000000, -224.000000)">
            <g id="日本" transform="translate(32.000000, 224.000000)">
                <path d="M0.220687133,31.7644575 L47.7873076,31.7644575 L47.7873076,0.204261975 L0.220687133,0.204261975 L0.220687133,31.7644575 Z M47.9002939,31.8822287 L47.9002939,31.7644888 L47.9002939,31.8822287 Z M0.023984324,32 L0.023984324,0.00797653959 L47.9840105,0.00797653959 L47.9840105,31.9607429 L0.023984324,31.9607429 L0.023984324,32 Z" id="形状" fill="#353636" fill-rule="nonzero"></path>
                <polygon id="路径" fill="#FFFFFF" points="0.102677988 0.125747801 47.86597 0.125747801 47.86597 31.8822287 0.102677988 31.8822287"></polygon>
                <path d="M14.4237962,15.9843597 C14.4237962,21.2524501 18.7041903,25.5230811 23.984324,25.5230811 C29.2644577,25.5230811 33.5448517,21.2524501 33.5448517,15.9843597 C33.5448517,10.7162694 29.2644577,6.44563832 23.984324,6.44563832 C18.7041903,6.44563832 14.4237962,10.7162694 14.4237962,15.9843597 Z" id="路径" fill="#C01D3C"></path>
            </g>
        </g>
    </g>
</svg>