<?xml version="1.0" standalone="no"?><!DOCTYPE svg PUBLIC "-//W3C//DTD SVG 1.1//EN" "http://www.w3.org/Graphics/SVG/1.1/DTD/svg11.dtd"><svg t="1571194764494" class="icon" viewBox="0 0 1024 1024" version="1.1" xmlns="http://www.w3.org/2000/svg" p-id="26353" xmlns:xlink="http://www.w3.org/1999/xlink" width="200" height="200"><defs><style type="text/css"></style></defs><path d="M460.8 870.4c0-28.16 23.04-51.2 51.2-51.2h409.6c28.16 0 51.2 23.04 51.2 51.2s-23.04 51.2-51.2 51.2h-409.6c-28.16 0-51.2-23.04-51.2-51.2z" fill="#ffffff" p-id="26354"></path><path d="M307.2 460.8h614.4c28.16 0 51.2 23.04 51.2 51.2s-23.04 51.2-51.2 51.2H307.2c-28.16 0-51.2-23.04-51.2-51.2s23.04-51.2 51.2-51.2z" fill="#ffffff" p-id="26355"></path><path d="M102.4 102.4h819.2c28.16 0 51.2 23.04 51.2 51.2s-23.04 51.2-51.2 51.2H102.4c-28.16 0-51.2-23.04-51.2-51.2s23.04-51.2 51.2-51.2z" fill="#ffffff" p-id="26356"></path></svg>