<?xml version="1.0" standalone="no"?><!DOCTYPE svg PUBLIC "-//W3C//DTD SVG 1.1//EN" "http://www.w3.org/Graphics/SVG/1.1/DTD/svg11.dtd"><svg t="1571193271056" class="icon" viewBox="0 0 1024 1024" version="1.1" xmlns="http://www.w3.org/2000/svg" p-id="3871" xmlns:xlink="http://www.w3.org/1999/xlink" width="200" height="200"><defs><style type="text/css"></style></defs><path d="M512 512m-512 0a512 512 0 1 0 1024 0 512 512 0 1 0-1024 0Z" fill="#FFFFFF" p-id="3872"></path><path d="M512 512m-438.857143 0a438.857143 438.857143 0 1 0 877.714286 0 438.857143 438.857143 0 1 0-877.714286 0Z" fill="#F5222D" p-id="3873"></path><path d="M522.971429 460.8l153.6-149.942857c14.628571-14.628571 36.571429-14.628571 51.2 0l7.314285 7.314286c14.628571 14.628571 14.628571 36.571429 0 51.2l-153.6 149.942857 149.942857 153.6c14.628571 14.628571 14.628571 36.571429 0 51.2l-7.314285 7.314285c-14.628571 14.628571-36.571429 14.628571-51.2 0l-149.942857-153.6L365.714286 731.428571c-14.628571 14.628571-36.571429 14.628571-51.2 0l-7.314286-7.314285c-14.628571-14.628571-14.628571-36.571429 0-51.2l153.6-149.942857L310.857143 365.714286c-14.628571-14.628571-14.628571-36.571429 0-51.2l7.314286-7.314286c14.628571-14.628571 36.571429-14.628571 51.2 0l153.6 153.6z" fill="#FFFFFF" p-id="3874"></path></svg>