<?xml version="1.0" standalone="no"?><!DOCTYPE svg PUBLIC "-//W3C//DTD SVG 1.1//EN" "http://www.w3.org/Graphics/SVG/1.1/DTD/svg11.dtd"><svg t="1571407767399" class="icon" viewBox="0 0 1024 1024" version="1.1" xmlns="http://www.w3.org/2000/svg" p-id="1096" width="32" height="32" xmlns:xlink="http://www.w3.org/1999/xlink"><defs><style type="text/css"></style></defs><path d="M512 64C264.6 64 64 264.6 64 512s200.6 448 448 448 448-200.6 448-448S759.4 64 512 64z m43.3 652c-9.3 9.1-20 14.6-31.9 16.7-3.8 0.2-7.5 0.3-11.4 0.3s-7.6-0.1-11.4-0.3c-12-2.1-22.6-7.7-31.9-16.7-12.1-11.9-18.1-26.1-18.1-43 0-16.7 6-31.2 18.1-43.3 12.1-12.1 26.6-18.2 43.3-18.2 16.7 0 31.2 6.1 43.3 18.2 12.1 12.1 18.1 26.6 18.1 43.3 0.1 16.8-5.9 31.2-18.1 43z m-13.9-141.3h-57.7c-7-85.4-33-202.8-33-218.8 0-18.3 5.7-33.7 17.2-46.1 11.6-12.5 26.2-18.8 44.2-18.8 17.9 0 32.6 6.2 44.2 18.5 11.5 12.4 17.2 27.8 17.2 46.4 0 16-24 133.4-32.1 218.8z" fill="#2699F8" p-id="1097"></path></svg>