<?xml version="1.0" encoding="UTF-8"?>
<svg width="44px" height="44px" viewBox="0 0 44 44" version="1.1" xmlns="http://www.w3.org/2000/svg" xmlns:xlink="http://www.w3.org/1999/xlink">
    <!-- Generator: Sketch 52.5 (67469) - http://www.bohemiancoding.com/sketch -->
    <title>追加</title>
    <desc>Created with Sketch.</desc>
    <g id="Page-2-Copy-2" stroke="none" stroke-width="1" fill="none" fill-rule="evenodd">
        <g id="1.10追加订单" transform="translate(-103.000000, -1246.000000)">
            <g id="分组-2" transform="translate(0.000000, 1236.000000)">
                <g id="追加" transform="translate(103.000000, 10.000000)">
                    <rect id="Rectangle" stroke="#FCC71E" stroke-width="0.2" opacity="0.00999999978" x="0.1" y="0.1" width="43.8" height="43.8"></rect>
                    <g transform="translate(7.000000, 5.000000)" fill="#2394FF" fill-rule="nonzero" id="形状">
                        <path d="M29.3766128,15.6531064 L21.6312511,15.6531064 L21.6312511,7.90774468 C21.6312511,7.24105532 21.1018213,6.69201702 20.4155234,6.69201702 C19.748834,6.69201702 19.1997957,7.22144681 19.1997957,7.90774468 L19.1997957,15.6531064 L11.454434,15.6531064 C10.7877447,15.6531064 10.2387064,16.1825362 10.2387064,16.868834 C10.2387064,17.5355234 10.7681362,18.0845617 11.454434,18.0845617 L19.1997957,18.0845617 L19.1997957,25.8299234 C19.1997957,26.4966128 19.748834,27.0456511 20.4351319,27.0456511 C21.1214298,27.0456511 21.6704681,26.4966128 21.6312511,25.8299234 L21.6312511,18.0845617 L29.3766128,18.0845617 C30.0629106,18.0845617 30.6119489,17.5355234 30.5923404,16.868834 C30.5923404,16.2021447 30.0629106,15.6531064 29.3766128,15.6531064 Z M28.1412766,24.7318468 L28.1412766,31.2614809 L2.43451915,31.2614809 L2.43451915,2.43697021 L28.1412766,2.43697021 L28.1412766,9.65290213 C28.1412766,10.3392 28.6903149,10.8686298 29.3570043,10.8686298 C30.0433021,10.8686298 30.5727319,10.3195915 30.5727319,9.65290213 L30.5727319,1.22124255 C30.5727319,0.534944681 30.0236936,0.00551489362 29.3570043,0.00551489362 L1.21879149,0.00551489362 C0.532493617,0.00551489362 0.00306382979,0.554553191 0.00306382979,1.22124255 L0.00306382979,32.496817 C0.00306382979,33.1831149 0.552102128,33.7125447 1.21879149,33.7125447 L29.3766128,33.7125447 C30.0629106,33.7125447 30.5923404,33.1635064 30.5923404,32.496817 L30.5923404,24.7318468 C30.5923404,24.0455489 30.0433021,23.5161191 29.3766128,23.5161191 C28.6903149,23.5161191 28.1412766,24.0651574 28.1412766,24.7318468 Z"></path>
                    </g>
                </g>
            </g>
        </g>
    </g>
</svg>