<?xml version="1.0" encoding="UTF-8"?>
<svg width="30px" height="32px" viewBox="0 0 30 32" version="1.1" xmlns="http://www.w3.org/2000/svg" xmlns:xlink="http://www.w3.org/1999/xlink">
    <!-- Generator: Sketch 52.5 (67469) - http://www.bohemiancoding.com/sketch -->
    <title>垃圾桶</title>
    <desc>Created with Sketch.</desc>
    <g id="Page-2-Copy-2" stroke="none" stroke-width="1" fill="none" fill-rule="evenodd">
        <g id="1.6购物车" transform="translate(-626.000000, -871.000000)" fill="#383838" fill-rule="nonzero">
            <g id="分组-6" transform="translate(0.000000, 854.000000)">
                <g id="垃圾桶" transform="translate(626.000000, 17.000000)">
                    <path d="M28.8434505,5.02946955 L21.2779553,5.02946955 L21.2779553,2.41414538 C21.2779553,1.00589391 20.0511182,0 18.8242812,0 L11.2587859,0 C10.0319489,0 8.80511182,1.20707269 8.80511182,2.41414538 L8.80511182,4.82829077 L1.23961661,4.82829077 C0.42172524,4.82829077 0.0127795527,5.23064833 0.0127795527,6.03536346 C0.0127795527,6.84007859 0.42172524,7.24243615 1.23961661,7.24243615 L2.46645367,7.24243615 L2.46645367,29.5732809 C2.46645367,30.9815324 3.69329073,31.9874263 4.9201278,31.9874263 L24.9584665,31.9874263 C26.3897764,31.9874263 27.4121406,30.7803536 27.4121406,29.5732809 L27.4121406,7.44361493 L28.6389776,7.44361493 C29.456869,7.44361493 29.8658147,7.04125737 29.8658147,6.23654224 C30.2747604,5.43182711 29.6613419,5.02946955 28.8434505,5.02946955 Z M11.2587859,2.41414538 L18.8242812,2.41414538 L18.8242812,4.82829077 L11.2587859,4.82829077 L11.2587859,2.41414538 Z M5.12460064,29.5732809 L5.12460064,7.44361493 L25.1629393,7.44361493 L25.1629393,29.7744597 L5.12460064,29.7744597 L5.12460064,29.5732809 Z M18.8242812,12.4730845 C18.0063898,12.4730845 17.5974441,12.875442 17.5974441,13.6801572 L17.5974441,23.5379175 C17.5974441,24.3426326 18.0063898,24.7449902 18.8242812,24.7449902 C19.6421725,24.7449902 20.0511182,24.3426326 20.0511182,23.5379175 L20.0511182,13.6801572 C20.0511182,12.875442 19.6421725,12.4730845 18.8242812,12.4730845 Z M11.2587859,12.4730845 C10.4408946,12.4730845 10.0319489,12.875442 10.0319489,13.6801572 L10.0319489,23.5379175 C10.0319489,24.3426326 10.4408946,24.7449902 11.2587859,24.7449902 C12.0766773,24.7449902 12.485623,24.3426326 12.485623,23.5379175 L12.485623,13.6801572 C12.6900958,12.875442 12.0766773,12.4730845 11.2587859,12.4730845 Z" id="形状"></path>
                </g>
            </g>
        </g>
    </g>
</svg>