<?xml version="1.0" standalone="no"?><!DOCTYPE svg PUBLIC "-//W3C//DTD SVG 1.1//EN" "http://www.w3.org/Graphics/SVG/1.1/DTD/svg11.dtd"><svg t="1571368631584" class="icon" viewBox="0 0 1024 1024" version="1.1" xmlns="http://www.w3.org/2000/svg" p-id="25852" xmlns:xlink="http://www.w3.org/1999/xlink" width="200" height="200"><defs><style type="text/css"></style></defs><path d="M726.357333 309.589333c-5.12-1.365333-11.264-1.365333-16.384-1.365333h-289.792c-5.12 0-8.874667 0-13.653333 1.365333-53.589333 6.144-94.890667 52.565333-94.890667 107.52v398.336c0 60.074667 48.810667 108.544 108.544 108.544h264.533334c34.816-28.672 93.525333-89.770667 113.664-115.029333 8.874667-9.898667 15.018667-20.138667 20.138666-27.306667V416.768c1.706667-53.589333-39.594667-98.645333-92.16-107.178667z m0 0" fill="#F89D16" p-id="25853"></path><path d="M410.965333 182.613333h212.309334c27.306667 0 47.445333-22.186667 47.445333-47.445333v-51.2c0-27.306667-22.186667-47.445333-47.445333-47.445333h-212.309334c-27.306667 0-47.445333 22.186667-47.445333 47.445333v50.858667c-2.048 25.6 20.138667 47.786667 47.445333 47.786666z m0-100.352h212.309334V133.12h-212.309334V82.261333z m348.16 13.653334c-13.653333 0-23.893333 10.24-23.893333 23.893333s10.24 23.893333 23.893333 23.893333c18.773333 0 76.458667 0 76.458667 115.712v419.84c0 6.826667-32.426667 18.773333-47.445333 18.773334h-144.384c-42.325333 0-74.752 32.426667-74.752 74.752v129.024c0 35.84 8.533333 57.685333 27.306666 69.632 8.533333 5.12 17.066667 6.826667 23.893334 6.826666 15.36 0 27.306667-6.826667 34.133333-8.533333 32.426667-15.36 146.090667-132.437333 181.930667-175.104 42.325333-50.858667 50.858667-81.578667 50.858666-114.005333v-419.84c-2.048-103.765333-48.128-164.864-128-164.864z m37.546667 669.696c-42.325333 50.858667-146.090667 152.917333-164.864 161.450666-3.413333 1.706667-6.826667 3.413333-10.24 3.413334-1.706667-3.413333-3.413333-10.24-3.413333-27.306667v-129.024c0-11.946667 8.533333-25.6 25.6-25.6h144.384c5.12 0 13.653333 0 23.893333-3.413333l-15.36 20.48z m-297.301333 169.984H307.2c-62.805333 0-114.005333-50.858667-114.005333-115.712V260.778667c0-42.325333 10.24-115.712 83.285333-115.712 13.653333 0 23.893333-10.24 23.893333-23.893334s-10.24-23.893333-23.893333-23.893333c-81.578667 0-132.437333 62.805333-132.437333 164.864v559.104c0 90.112 73.045333 164.864 163.157333 164.864h192.170667c13.653333 0 23.893333-10.24 23.893333-23.893333-0.341333-15.018667-10.24-26.624-23.893333-26.624z m0 0" fill="#593B29" p-id="25854"></path><path d="M727.04 276.138667H296.96c-13.653333 0-23.893333 10.24-23.893333 23.893333s10.24 23.893333 23.893333 23.893333h430.08c13.653333 0 23.893333-11.946667 23.893333-25.6-1.706667-10.24-11.946667-20.48-23.893333-22.186666z m0 312.661333H296.96c-13.653333 0-23.893333 10.24-23.893333 23.893333s10.24 23.893333 23.893333 23.893334h430.08c13.653333 0 23.893333-11.946667 23.893333-25.6 0-11.946667-10.24-22.186667-23.893333-22.186667z m0-156.330667H296.96c-13.653333 0-23.893333 10.24-23.893333 23.893334s10.24 23.893333 23.893333 23.893333h430.08c13.653333 0 23.893333-11.946667 23.893333-25.6-1.706667-11.946667-11.946667-20.48-23.893333-22.186667z m0 0" fill="#593B29" p-id="25855"></path></svg>