<?xml version="1.0" encoding="UTF-8"?>
<svg width="40px" height="44px" viewBox="0 0 40 44" version="1.1" xmlns="http://www.w3.org/2000/svg" xmlns:xlink="http://www.w3.org/1999/xlink">
    <!-- Generator: Sketch 60 (88103) - https://sketch.com -->
    <title>验证码</title>
    <desc>Created with Sketch.</desc>
    <g id="Page-1" stroke="none" stroke-width="1" fill="none" fill-rule="evenodd">
        <g id="1.3注册" transform="translate(-52.000000, -790.000000)">
            <g id="验证码" transform="translate(48.000000, 788.000000)">
                <rect id="矩形-copy" fill="#D8D8D8" opacity="0" x="0" y="0" width="48" height="48"></rect>
                <g transform="translate(4.000000, 2.000000)" fill="#333333" fill-rule="nonzero" id="形状">
                    <path d="M19.6651059,44 C12.7928651,44 0.00490523969,34.1502787 0.00490523969,24.8352285 L0.00490523969,7.05373467 C0.00490523969,6.62207358 0.377703456,6.27380156 0.843701226,6.26399108 L1.95719064,6.24437012 C2.00133779,6.24437012 6.36209588,6.16098105 10.8651059,4.44414716 C15.4858417,2.68807135 18.4584169,0.672017837 18.4927536,0.647491639 L19.1500557,0.201114827 C19.2972129,0.0981047938 19.4787068,0.0441471572 19.6602007,0.0441471572 C19.8367893,0.0441471572 20.0182832,0.0931995541 20.1654404,0.196209588 L20.832553,0.647491639 C20.8619844,0.667112598 23.8443701,2.68807135 28.4602007,4.44414716 C32.9632107,6.15607581 37.328874,6.24437012 37.3730212,6.24437012 L38.4767001,6.26399108 C38.9426979,6.27380156 39.3154961,6.62207358 39.3154961,7.05373467 L39.325308,24.8352285 C39.3302118,34.1502787 26.5471572,44 19.6651059,44 Z M36.2987737,9.12374582 C34.606466,9.00111483 31.0550725,8.58416945 27.361427,7.17636566 C23.5843924,5.73913043 20.812932,4.13021182 19.6700111,3.41895206 C18.5319955,4.13021182 15.7507246,5.74403567 11.9785953,7.17636566 C8.28985507,8.57926421 4.74336678,8.99620959 3.03143813,9.12374582 L3.03143813,24.8352285 C3.03143813,32.1391304 14.1712375,41.0715719 19.6651059,41.0715719 C21.7939799,41.0715719 25.9438127,39.4086957 30.0249721,35.7591973 C33.9589744,32.2421405 36.3036789,28.1560758 36.3036789,24.8352285 L36.2987737,9.12374582 Z M18.090524,27.8225195 C17.7962096,28.1119287 17.4086957,28.2541806 17.0211817,28.2541806 C16.6336678,28.2541806 16.2461538,28.1119287 15.9518395,27.8225195 L11.4144928,23.43233 C10.825864,22.8584169 10.825864,21.9313266 11.4144928,21.3623188 C12.0080268,20.7884058 12.9645485,20.7884058 13.5531773,21.3623188 L17.0211817,24.722408 L25.7819398,16.2363434 C26.3754738,15.6624303 27.3319955,15.6624303 27.9206243,16.2363434 C28.5141583,16.8053512 28.5141583,17.7324415 27.9206243,18.3063545 L18.090524,27.8225195 Z"></path>
                </g>
            </g>
        </g>
    </g>
</svg>