<?xml version="1.0" encoding="UTF-8"?>
<svg width="34px" height="48px" viewBox="0 0 34 48" version="1.1" xmlns="http://www.w3.org/2000/svg" xmlns:xlink="http://www.w3.org/1999/xlink">
    <!-- Generator: Sketch 60 (88103) - https://sketch.com -->
    <title>手机</title>
    <desc>Created with Sketch.</desc>
    <g id="Page-1" stroke="none" stroke-width="1" fill="none" fill-rule="evenodd">
        <g id="1.3注册" transform="translate(-55.000000, -674.000000)">
            <g id="手机" transform="translate(48.000000, 675.000000)">
                <rect id="矩形-copy" fill="#D8D8D8" opacity="0" x="0" y="0" width="48" height="48"></rect>
                <g id="手机-(4)" transform="translate(8.000000, 0.000000)" fill="#333333">
                    <path d="M26.9801786,46.2 L5.01982144,46.2 C2.14611465,46.2 -0.2,44.1006737 -0.2,41.5082147 L-0.2,4.49178531 C-0.2,1.89932633 2.14611463,-0.2 5.01982144,-0.2 L26.9801786,-0.2 C29.8538853,-0.2 32.2,1.89932631 32.2,4.49178531 L32.2,41.5082647 C32.2,44.1007156 29.8539502,46.2 26.9801786,46.2 Z M2.70993867,34.997453 L2.70993867,41.5082147 C2.70993867,42.6311332 3.74141778,43.5540824 5.01987729,43.5540824 L26.9802344,43.5540824 C28.258694,43.5540824 29.2901731,42.6311332 29.2901731,41.5082147 L29.2901731,34.997453 L2.70993867,34.997453 Z M2.70988283,32.3515854 L29.2901172,32.3515854 L29.2901172,4.49173534 C29.2901172,3.36881692 28.2586381,2.44586769 26.9801786,2.44586769 L5.01982144,2.44586769 C3.7413619,2.44586769 2.70988283,3.3688169 2.70988283,4.49173534 L2.70988283,32.3515854 Z" id="形状" stroke="#333333" stroke-width="0.4" fill-rule="nonzero"></path>
                    <path d="M16.5,42 C15.1202576,42 14,40.8797931 14,39.5 C14,38.1203084 15.1202576,37 16.5,37 C17.8811118,37 19,38.1202577 19,39.5 C19,40.8797424 17.8811625,42 16.5,42 Z" id="路径"></path>
                </g>
            </g>
        </g>
    </g>
</svg>