<?xml version="1.0" encoding="UTF-8"?>
<svg width="48px" height="32px" viewBox="0 0 48 32" version="1.1" xmlns="http://www.w3.org/2000/svg" xmlns:xlink="http://www.w3.org/1999/xlink">
    <!-- Generator: Sketch 52.5 (67469) - http://www.bohemiancoding.com/sketch -->
    <title>香港</title>
    <desc>Created with Sketch.</desc>
    <g id="Page-2" stroke="none" stroke-width="1" fill="none" fill-rule="evenodd">
        <g id="1.2语言-" transform="translate(-32.000000, -384.000000)">
            <g id="香港" transform="translate(32.000000, 384.000000)">
                <polygon id="路径" fill="#F0371D" points="0 0 48 0 48 32 0 32"></polygon>
                <path d="M27.6,15.1854545 C25.44,13.8763636 24.9,16.2618182 24.9,15.1854545 C24.9,13.0036364 27.33,11.2290909 30.3,11.2290909 C33.27,11.2290909 35.7,13.0036364 35.7,15.1854545 C33.12,15.1854545 32.88,16.4945455 31.65,16.4945455 C30.15,16.4945455 29.76,16.4945455 27.6,15.1854545 Z M26.07,19.8690909 C26.7,17.4836364 24.18,17.7163636 25.23,17.3672727 C27.36,16.6981818 29.85,18.3854545 30.78,21.1490909 C31.71,23.9127273 30.72,26.6763636 28.56,27.3745455 C27.78,25.0181818 26.4,25.1636364 26.01,24.0290909 C25.56,22.6327273 25.44,22.2836364 26.07,19.8690909 Z M21.06,19.8981818 C23.61,19.7236364 22.59,17.4836364 23.25,18.3563636 C24.57,20.1309091 23.7,22.9527273 21.27,24.64 C18.84,26.3272727 15.81,26.2981818 14.49,24.5236364 C16.56,23.0690909 15.99,21.8472727 16.98,21.1490909 C18.18,20.2763636 18.51,20.0727273 21.06,19.8981818 Z M19.47,15.2436364 C20.43,17.5418182 22.32,15.9127273 21.66,16.7854545 C20.34,18.56 17.31,18.6181818 14.88,16.9018182 C12.45,15.1854545 11.58,12.3927273 12.9,10.6181818 C14.97,12.0727273 15.99,11.1709091 16.98,11.8690909 C18.21,12.7127273 18.51,12.9454545 19.47,15.2436364 Z M23.52,12.3054545 C21.57,13.8763636 23.73,15.1272727 22.68,14.8072727 C20.55,14.1381818 19.56,11.3454545 20.46,8.58181818 C21.36,5.81818182 23.88,4.13090909 26.01,4.8 C25.23,7.15636364 26.43,7.82545455 26.04,8.96 C25.59,10.3854545 25.47,10.7345455 23.52,12.3054545 Z M23.31,9.19272727 L23.73,9.77454545 L23.76,9.07636364 L24.45,8.87272727 L23.76,8.61090909 L23.76,7.91272727 L23.34,8.43636364 L22.65,8.20363636 L23.04,8.78545455 L22.59,9.33818182 L23.31,9.19272727 Z M31.29,14.2254545 L31.98,14.0218182 L31.29,13.76 L31.29,13.0618182 L30.84,13.6145455 L30.15,13.3818182 L30.54,13.9636364 L30.09,14.5163636 L30.81,14.3418182 L31.23,14.9236364 L31.29,14.2254545 Z M28.65,22.8363636 L29.34,22.6327273 L28.65,22.3709091 L28.65,21.6727273 L28.2,22.2254545 L27.51,21.9927273 L27.9,22.5745455 L27.45,23.1272727 L28.17,22.9527273 L28.59,23.5345455 L28.65,22.8363636 Z M19.44,22.9818182 L20.13,22.7781818 L19.44,22.5163636 L19.44,21.8181818 L18.99,22.3709091 L18.3,22.1381818 L18.69,22.72 L18.24,23.2727273 L18.96,23.0981818 L19.38,23.68 L19.44,22.9818182 Z M16.26,14.5454545 L16.95,14.3418182 L16.26,14.08 L16.26,13.3818182 L15.81,13.9345455 L15.15,13.6727273 L15.54,14.2545455 L15.12,14.8363636 L15.84,14.6618182 L16.26,15.2436364 L16.26,14.5454545 Z" id="形状" fill="#FFFFFF" fill-rule="nonzero"></path>
            </g>
        </g>
    </g>
</svg>