<?xml version="1.0" standalone="no"?><!DOCTYPE svg PUBLIC "-//W3C//DTD SVG 1.1//EN" "http://www.w3.org/Graphics/SVG/1.1/DTD/svg11.dtd"><svg t="1571194654574" class="icon" viewBox="0 0 1082 1024" version="1.1" xmlns="http://www.w3.org/2000/svg" p-id="24069" xmlns:xlink="http://www.w3.org/1999/xlink" width="211.328125" height="200"><defs><style type="text/css"></style></defs><path d="M117.128968 116.2505l790.620532 0 0 907.7495-790.620532 0 0-907.7495Z" fill="#FEE409" p-id="24070"></path><path d="M658.557621 186.527881a26.939663 26.939663 0 0 0-8.199028-19.619102 29.282242 29.282242 0 0 0-39.238204 0l-181.5499 178.621676-180.964255-178.621676a29.282242 29.282242 0 0 0-39.238204 0 26.939663 26.939663 0 0 0 0 38.652559l175.693451 173.05805h-155.195882a29.282242 29.282242 0 0 0-19.619102 7.906205 26.939663 26.939663 0 0 0-8.199028 19.32628 27.525307 27.525307 0 0 0 27.81813 27.232485h172.472405v77.305119H229.865599a27.232485 27.232485 0 1 0 0 54.46497h172.472405v104.830426a27.525307 27.525307 0 0 0 27.81813 27.232485 27.525307 27.525307 0 0 0 27.81813-27.232485V565.147269h172.472405a29.282242 29.282242 0 0 0 19.619102-7.906205 26.939663 26.939663 0 0 0 8.199027-19.32628 27.525307 27.525307 0 0 0-27.818129-27.232485h-172.765228v-77.597941h172.472405a27.232485 27.232485 0 1 0 0-54.46497H474.372319l175.693452-173.05805a26.939663 26.939663 0 0 0 8.49185-19.326279z" fill="#2F2F2F" p-id="24071"></path><path d="M505.704318 910.384901H117.128968a61.199886 61.199886 0 0 1-61.492708-62.078353v-732.056048A61.199886 61.199886 0 0 1 117.128968 54.46497h625.468687a61.199886 61.199886 0 0 1 61.492708 61.78553v518.295682a27.81813 27.81813 0 0 0 55.343437 0V116.2505a117.128968 117.128968 0 0 0-117.128967-115.07921H117.128968a117.128968 117.128968 0 0 0-117.128968 115.07921v732.056048a117.128968 117.128968 0 0 0 117.128968 117.128968h388.57535a27.232485 27.232485 0 1 0 0-54.46497z" fill="#2F2F2F" p-id="24072"></path><path d="M1074.658279 628.104089a29.282242 29.282242 0 0 0-19.619103-7.906205 27.525307 27.525307 0 0 0-19.326279 7.613383l-322.104661 271.15356-144.068631-134.698313a29.282242 29.282242 0 0 0-38.945381-3.806691 26.939663 26.939663 0 0 0 0 41.287961l163.39491 153.73177a29.282242 29.282242 0 0 0 19.619102 7.906205 27.525307 27.525307 0 0 0 19.326279-7.613383l341.138119-289.015727a26.939663 26.939663 0 0 0 0-38.65256z" fill="#2F2F2F" p-id="24073"></path></svg>