<?xml version="1.0" standalone="no"?><!DOCTYPE svg PUBLIC "-//W3C//DTD SVG 1.1//EN" "http://www.w3.org/Graphics/SVG/1.1/DTD/svg11.dtd"><svg t="1571194323926" class="icon" viewBox="0 0 1024 1024" version="1.1" xmlns="http://www.w3.org/2000/svg" p-id="21184" xmlns:xlink="http://www.w3.org/1999/xlink" width="200" height="200"><defs><style type="text/css"></style></defs><path d="M193.952542 705.084746h610.494916v55.538983H193.952542zM406.562712 196.122034h210.874576v45.125424H406.562712z" fill="#80D6F9" p-id="21185"></path><path d="M188.745763 757.586441H837.423729c10.847458 0 19.959322 8.677966 19.959322 19.959322v30.806779c0 10.847458-8.677966 19.959322-19.959322 19.959322H188.745763c-10.847458 0-19.959322-8.677966-19.959322-19.959322v-30.806779c0.433898-10.847458 9.111864-19.959322 19.959322-19.959322z" fill="#A9B1BA" p-id="21186"></path><path d="M336.705085 360.135593C398.318644 295.484746 512 283.769492 512 283.769492s120.623729 13.884746 177.898305 82.006779 68.122034 152.298305 68.122034 152.298305v192.216949H265.979661v-195.254237S275.091525 424.352542 336.705085 360.135593z" fill="#ECF4F7" p-id="21187"></path><path d="M757.586441 669.938983c-3.037288 0-5.640678-2.60339-5.640678-5.640678v-128.867797c0-132.338983-107.60678-239.945763-239.945763-239.945762s-239.945763 107.60678-239.945763 239.945762v128.867797c0 3.037288-2.60339 5.640678-5.640678 5.640678s-5.640678-2.60339-5.640678-5.640678v-128.867797c0-138.847458 112.813559-251.661017 251.661017-251.661016s251.661017 112.813559 251.661017 251.661016v128.867797c-0.433898 3.037288-3.037288 5.640678-6.508474 5.640678z" fill="#51565F" p-id="21188"></path><path d="M512 295.484746c-3.037288 0-5.640678-2.60339-5.640678-5.640678v-40.786441H418.277966c-9.545763 0-17.355932-7.810169-17.355932-17.355932V208.271186c0-9.545763 7.810169-17.355932 17.355932-17.355932h187.444068c9.545763 0 17.355932 7.810169 17.355932 17.355932v23.430509c0 9.545763-7.810169 17.355932-17.355932 17.355932h-46.861017c-3.037288 0-5.640678-2.60339-5.640678-5.640678s2.60339-5.640678 5.640678-5.640678h46.861017c3.037288 0 5.640678-2.60339 5.640678-5.640678v-23.430508c0-3.037288-2.60339-5.640678-5.640678-5.640678H418.277966c-3.037288 0-5.640678 2.60339-5.640678 5.640678v23.430508c0 3.037288 2.60339 5.640678 5.640678 5.640678H512c3.037288 0 5.640678 2.60339 5.640678 5.640678v46.861017c0 2.60339-2.60339 5.20678-5.640678 5.20678zM851.308475 833.952542H172.691525c-3.037288 0-5.640678-2.60339-5.640678-5.640678v-46.861017c0-14.318644 9.979661-26.033898 23.430509-28.637288v-41.654237c0-3.037288 2.60339-5.640678 5.640678-5.640678h608.759322c3.037288 0 5.640678 2.60339 5.640678 5.640678s-2.60339 5.640678-5.640678 5.640678h-603.118644v40.786441c0 3.037288-2.60339 5.640678-5.640678 5.640678-9.545763 0-17.355932 7.810169-17.355932 17.355932v40.786441H846.101695v-40.786441c0-9.545763-7.810169-17.355932-17.355932-17.355932H242.549153c-3.037288 0-5.640678-2.60339-5.640678-5.640678s2.60339-5.640678 5.640678-5.640678h585.328813c16.054237 0 29.071186 13.016949 29.071187 29.071186v46.861017c0.433898 3.471186-2.169492 6.074576-5.640678 6.074576zM594.00678 360.135593c-0.867797 0-1.735593 0-2.60339-0.433898-7.376271-3.471186-14.752542-6.074576-22.128814-8.244068-3.037288-0.867797-4.772881-4.338983-3.905084-7.376271s4.338983-4.772881 7.376271-3.905085c7.810169 2.60339 16.054237 5.640678 23.430508 9.111865 3.037288 1.301695 4.338983 4.772881 3.037288 7.810169-0.867797 1.735593-3.037288 3.037288-5.206779 3.037288zM702.047458 482.494915c-2.60339 0-4.772881-1.735593-5.640678-4.338983-11.715254-37.315254-33.844068-69.857627-64.650848-94.58983-2.60339-2.169492-3.037288-5.640678-0.867796-8.244068s5.640678-3.037288 8.244067-0.867797c32.542373 26.033898 56.40678 60.745763 68.555933 100.230509 0.867797 3.037288-0.867797 6.508475-3.905085 7.376271-0.433898 0.433898-0.867797 0.433898-1.735593 0.433898zM851.308475 357.098305c-2.169492 0-3.905085-1.301695-5.20678-3.037288-31.674576-58.142373-78.101695-107.172881-134.508475-142.318644-2.60339-1.735593-3.471186-5.20678-1.735593-8.244068 1.735593-2.60339 5.20678-3.471186 8.244068-1.735593 58.142373 36.013559 105.871186 86.779661 138.413559 146.657627 1.735593 3.037288 0.433898 6.508475-2.169491 7.810169-0.867797 0.433898-1.735593 0.867797-3.037288 0.867797zM774.942373 365.776271c-1.735593 0-3.905085-0.867797-4.772881-2.60339-19.959322-29.938983-45.125424-55.972881-74.196611-77.667796-2.60339-1.735593-3.037288-5.640678-1.301695-8.244068 1.735593-2.60339 5.640678-3.037288 8.244068-1.301695 30.372881 22.128814 55.972881 49.464407 76.8 80.271186 1.735593 2.60339 0.867797 6.508475-1.735593 8.244068-0.867797 0.867797-2.169492 1.301695-3.037288 1.301695zM183.538983 338.440678c-0.867797 0-2.169492-0.433898-3.037288-0.867797-2.60339-1.735593-3.471186-5.20678-1.735593-8.244067C214.779661 271.186441 265.545763 223.457627 325.423729 190.915254c3.037288-1.735593 6.508475-0.433898 7.810169 2.169492 1.735593 3.037288 0.433898 6.508475-2.169491 7.810169-58.142373 31.674576-107.172881 78.101695-142.318644 134.508475-1.735593 1.735593-3.471186 3.037288-5.20678 3.037288zM257.301695 354.061017c-1.301695 0-2.60339-0.433898-3.471187-1.301695-2.60339-1.735593-3.037288-5.640678-1.301694-8.244068 22.128814-30.372881 49.464407-55.972881 80.271186-76.8 2.60339-1.735593 6.508475-0.867797 8.244068 1.735593 1.735593 2.60339 0.867797 6.508475-1.735593 8.244068-29.505085 19.959322-55.538983 44.691525-77.233899 73.762712-0.867797 1.735593-3.037288 2.60339-4.772881 2.60339z" fill="#51565F" p-id="21189"></path></svg>