<?xml version="1.0" encoding="UTF-8"?>
<svg width="48px" height="32px" viewBox="0 0 48 32" version="1.1" xmlns="http://www.w3.org/2000/svg" xmlns:xlink="http://www.w3.org/1999/xlink">
    <!-- Generator: Sketch 52.5 (67469) - http://www.bohemiancoding.com/sketch -->
    <title>英国</title>
    <desc>Created with Sketch.</desc>
    <g id="Page-2" stroke="none" stroke-width="1" fill="none" fill-rule="evenodd">
        <g id="1.2语言-" transform="translate(-32.000000, -304.000000)">
            <g id="英国" transform="translate(32.000000, 304.000000)">
                <polygon id="路径" fill="#00458F" points="0.0231885566 0 47.9804317 0 47.9804317 32 0.0232197659 32 0.0232197659 0"></polygon>
                <polygon id="路径" fill="#FFFFFF" points="47.9411079 11.1933125 28.7826164 11.1933125 28.7826164 0 19.1816801 0 19.1816801 11.1933125 0.0232197659 11.1933125 0.0232197659 20.8066875 19.1817113 20.8066875 19.1817113 32 28.7826476 32 28.7826476 20.8066875 47.9411391 20.8066875 47.9411391 11.1933125"></polygon>
                <polygon id="路径" fill="#FFFFFF" points="47.9411079 28.320125 5.51616125 0 0.0231885566 0 0.0231885566 3.71928125 42.4087802 32 47.9411079 32"></polygon>
                <polygon id="路径" fill="#FFFFFF" points="0.0231885566 28.320125 42.4481664 0 47.9411391 0 47.9411391 3.71928125 5.55551625 32 0.0231885566 32"></polygon>
                <polygon id="路径" fill="#CC3440" points="47.9411079 13.2105313 26.7679584 13.2105313 26.7679584 0 21.1963069 0 21.1963069 13.2105313 0.0231885566 13.2105313 0.0231885566 18.7894688 21.1963069 18.7894688 21.1963069 32 26.7679896 32 26.7679896 18.7894688 47.9411079 18.7894688"></polygon>
                <path d="M47.9411079,31.9211875 L47.9411079,29.3878437 L35.0625332,20.8066875 L31.2693784,20.8066875 L47.9411079,31.9211875 Z M47.9411079,0 L44.1479532,0 L28.7825852,10.2437812 L28.7825852,11.1933125 L31.1513446,11.1933125 L47.9411079,0 Z M16.6949181,20.8066875 L0.0231885566,31.9211875 L0.0231885566,32 L3.6589857,32 L19.1817425,21.6774063 L19.1817425,20.8066875 L16.6949493,20.8066875 L16.6949181,20.8066875 Z M0.0231573472,0 L0.0231885566,2.533375 L12.9804733,11.1933125 L16.8129831,11.1933125 L0.0231573472,0 Z" id="形状" fill="#CC3440" fill-rule="nonzero"></path>
            </g>
        </g>
    </g>
</svg>