<?xml version="1.0" encoding="UTF-8"?>
<svg width="450px" height="450px" viewBox="0 0 450 450" version="1.1" xmlns="http://www.w3.org/2000/svg" xmlns:xlink="http://www.w3.org/1999/xlink">
    <!-- Generator: Sketch 60 (88103) - https://sketch.com -->
    <title>编组 6</title>
    <desc>Created with Sketch.</desc>
    <g id="整合" stroke="none" stroke-width="1" fill="none" fill-rule="evenodd">
        <g id="首页" transform="translate(-150.000000, -751.000000)">
            <g id="编组-5" transform="translate(151.000000, 752.000000)">
                <g id="编组-6">
                    <path d="M428,-0.5 C439.321837,-0.5 448.5,8.67816263 448.5,20 L448.5,368.5 L448,368.5 C441.648725,368.5 436.5,373.648725 436.5,380 C436.5,386.351275 441.648725,391.5 448,391.5 L448.5,391.5 L448.5,428 C448.5,439.321837 439.321837,448.5 428,448.5 L20,448.5 C8.67816263,448.5 -0.5,439.321837 -0.5,428 L-0.5,391.5 L0,391.5 C6.35127462,391.5 11.5,386.351275 11.5,380 C11.5,373.648725 6.35127462,368.5 0,368.5 L-0.5,368.5 L-0.5,20 C-0.5,8.67816263 8.67816263,-0.5 20,-0.5 L428,-0.5 Z" id="形状结合" stroke="#979797" fill="#FFFFFF"></path>
                    <path d="M436,380 C436,386.627417 441.372583,392 448,392 L448,428 C448,439.045695 439.045695,448 428,448 L20,448 C8.954305,448 1.3527075e-15,439.045695 0,428 L0,392 L0,392 C6.627417,392 12,386.627417 12,380 L436,380 L436,380 Z" id="形状结合" fill="#E8ECEF"></path>
                    <line x1="12.5" y1="379.5" x2="436.5" y2="379.5" id="直线" stroke="#979797" stroke-linecap="square" stroke-dasharray="5"></line>
                </g>
            </g>
        </g>
    </g>
</svg>