<?xml version="1.0" encoding="UTF-8"?>
<svg width="30px" height="30px" viewBox="0 0 30 30" version="1.1" xmlns="http://www.w3.org/2000/svg" xmlns:xlink="http://www.w3.org/1999/xlink">
    <!-- Generator: Sketch 60 (88103) - https://sketch.com -->
    <title>图标/侧边栏列表/隐私协议</title>
    <desc>Created with Sketch.</desc>
    <g id="整合" stroke="none" stroke-width="1" fill="none" fill-rule="evenodd">
        <g id="左上角选择推出页" transform="translate(-37.000000, -345.000000)">
            <g id="列表/侧边栏" transform="translate(0.000000, 309.000000)">
                <g id="编组-7">
                    <g id="图标/列表/登出" transform="translate(37.000000, 36.000000)">
                        <g id="图标/侧边栏列表/隐私协议">
                            <rect id="矩形" fill="#D8D8D8" opacity="0" x="0" y="0" width="30" height="30"></rect>
                            <g id="眼睛" transform="translate(3.000000, 8.000000)" stroke="#787879">
                                <path d="M11.74368,0 C14.7584943,0.0248747052 17.3703383,0.65337559 19.7815264,2.03475088 C21.0368699,2.76275059 22.1927145,3.64165684 23.0964955,4.79750147 C23.3983086,5.17393868 23.6487139,5.60178361 23.8244952,6.02797022 C24.0749005,6.65647111 24.0500258,7.25843897 23.7498711,7.86206515 C23.3983086,8.59006486 22.8958395,9.21856574 22.2938717,9.7707842 C20.7615898,11.2533166 18.9789026,12.2317217 16.9939011,12.909972 C15.8894642,13.2864092 14.7336196,13.5384729 13.577775,13.6379717 C12.4219303,13.7640035 11.267744,13.7391288 10.1367741,13.613097 C7.22311694,13.2366598 4.6112729,12.1819723 2.32611665,10.3230027 C1.57324223,9.69450177 0.89499194,8.99137677 0.4173976,8.13734522 C0.266491055,7.88693986 0.166992235,7.58512677 0.0658351002,7.30818838 C-0.0850714446,6.80571934 0.040960395,6.328125 0.266491055,5.87706368 C0.618053555,5.12418927 1.14539731,4.49568838 1.74902348,3.94346993 C3.12874047,2.63837706 4.73564642,1.70806309 6.51999194,1.02981279 C7.7753354,0.552218455 9.08208657,0.22553066 10.4385872,0.101157134 C10.9659309,0.0514077241 11.4932747,0.0265330189 11.74368,0 Z" id="路径" stroke-width="1.5" fill-rule="nonzero"></path>
                                <path d="M12.1244491,11.5493755 C12.2211025,11.5394264 12.4127729,11.5202159 12.4833662,11.5121351 C12.6546935,11.4925234 12.8009721,11.4705184 12.9284063,11.4441022 C14.3210741,11.1403047 15.3747712,10.3945553 16.0895989,9.19692461 C16.7503749,8.07112242 16.9159113,6.85325896 16.5842204,5.57124912 C16.2623943,4.34791742 15.5476139,3.41304402 14.439697,2.73221799 C13.538445,2.18360112 12.581965,1.9701261 11.5199474,2.07614814 C10.4710592,2.18450286 9.55319365,2.59297141 8.78119291,3.30305761 C7.94099439,4.0805689 7.44145265,5.0301593 7.29889323,6.14129224 C7.11222124,7.53104085 7.45931759,8.74028422 8.35359984,9.78944789 C9.29714102,10.9528198 10.5020422,11.5186531 12.1244491,11.5493755 Z" id="路径" stroke-width="1.5" fill-rule="nonzero"></path>
                                <path d="M14,6 C14,4.8954305 13.1045695,4 12,4" id="路径" stroke-linecap="round"></path>
                            </g>
                        </g>
                    </g>
                </g>
            </g>
        </g>
    </g>
</svg>