<?xml version="1.0" encoding="UTF-8"?>
<svg width="44px" height="44px" viewBox="0 0 44 44" version="1.1" xmlns="http://www.w3.org/2000/svg" xmlns:xlink="http://www.w3.org/1999/xlink">
    <!-- Generator: Sketch 60 (88103) - https://sketch.com -->
    <title>店铺搜索</title>
    <desc>Created with Sketch.</desc>
    <g id="整合" stroke="none" stroke-width="1" fill="none" fill-rule="evenodd">
        <g id="首页" transform="translate(-74.000000, -1248.000000)">
            <g id="tab-bar" transform="translate(0.000000, 1236.000000)">
                <g id="编组-4" transform="translate(60.000000, 12.000000)">
                    <g id="店铺搜索" transform="translate(14.000000, 0.000000)">
                        <rect id="矩形" stroke="#979797" stroke-width="0.846153846" fill="#D8D8D8" opacity="0" x="0" y="1" width="44" height="44"></rect>
                        <g id="搜索" transform="translate(1.000000, 1.000000)" fill="#959697">
                            <path d="M19.4615385,38.9230769 C30.2098494,38.9230769 38.9230769,30.2098494 38.9230769,19.4615385 C38.9230769,8.71322756 30.2098494,0 19.4615385,0 C8.71322756,0 0,8.71322756 0,19.4615385 C0,30.2098494 8.71322756,38.9230769 19.4615385,38.9230769 L19.4615385,38.9230769 Z M19.4614148,32.4615384 C14.816783,32.4618072 10.5248512,29.98408 8.20245772,25.9617556 C5.88006422,21.9394312 5.88006422,16.9836456 8.20245772,12.9613213 C10.5248512,8.9389969 14.816783,6.46126968 19.4614148,6.46153844 C26.6408228,6.46195386 32.4606626,12.2821304 32.4606626,19.4615384 C32.4606626,26.6409464 26.6408228,32.461123 19.4614148,32.4615384 Z" id="形状" fill-rule="nonzero"></path>
                            <rect id="矩形" transform="translate(33.741211, 36.270508) scale(-1, 1) rotate(45.000000) translate(-33.741211, -36.270508) " x="30.7412109" y="27.7705078" width="6" height="17" rx="3"></rect>
                        </g>
                    </g>
                </g>
            </g>
        </g>
    </g>
</svg>