<?xml version="1.0" encoding="UTF-8"?>
<svg width="44px" height="44px" viewBox="0 0 44 44" version="1.1" xmlns="http://www.w3.org/2000/svg" xmlns:xlink="http://www.w3.org/1999/xlink">
    <!-- Generator: Sketch 60 (88103) - https://sketch.com -->
    <title>优惠券</title>
    <desc>Created with Sketch.</desc>
    <g id="整合" stroke="none" stroke-width="1" fill="none" fill-rule="evenodd">
        <g id="优惠券" transform="translate(-491.000000, -1250.000000)">
            <g id="tab-bar" transform="translate(0.000000, 1236.000000)">
                <g id="编组-4" transform="translate(486.125000, 14.000000)">
                    <g id="优惠券" transform="translate(4.000000, 0.000000)">
                        <rect id="矩形" fill="#D8D8D8" opacity="0" x="1" y="0" width="44" height="44"></rect>
                        <g id="优惠券（我的）" transform="translate(1.000000, 5.000000)" fill="#0069B8" fill-rule="nonzero">
                            <path d="M3.70456731,33.7931891 C-0.244150641,33.8495994 0.00969551282,29.8726763 0.00969551282,29.8726763 L0.00969551282,25.3034455 L0.0599936051,25.2782416 C0.574384744,25.013824 4.86097756,22.6504712 4.86097756,17.3213942 C4.88918269,11.4265224 0.037900641,9.33934295 0.037900641,9.33934295 L0.0375907702,9.30981571 C0.0345953526,9.01729768 0.0114583333,6.59286859 0.037900641,3.89575321 C0.0653434685,1.09658481 3.80424328,0.86072483 4.00632593,0.850020323 L11.0654009,0.849086538 L11.0661058,3.10600962 C11.0661058,3.8492977 11.6157642,4.44267894 12.3388442,4.50991657 L12.4763622,4.51626603 C13.2379006,4.51626603 13.8866186,3.86754808 13.8866186,3.10600962 L13.8866186,3.10600962 L13.8864009,0.849086538 L40.1455929,0.849599359 C43.5866186,0.849599359 43.8404647,4.37524038 43.8404647,4.37524038 L43.8404647,9.33934295 C43.8404647,9.33934295 38.9891827,11.0316506 38.9891827,17.3213942 C38.9891827,23.6111378 43.8404647,25.3034455 43.8404647,25.3034455 L43.8404647,30.7470353 C43.8404647,30.7470353 43.1353365,33.7931891 40.1455929,33.7931891 L39.9192532,33.7931141 C37.2342113,33.7915902 23.62356,33.7673551 13.7714554,33.7681364 L13.8866186,31.4803686 C13.8866186,30.690625 13.2661058,30.0701122 12.4763622,30.0701122 C11.6866186,30.0701122 11.0661058,30.690625 11.0661058,31.4803686 L11.0661058,31.4803686 L11.0650406,33.7690858 C7.49217665,33.771465 4.73250763,33.7785042 3.70456731,33.7931891 Z M12.4763622,19.7470353 C11.6866186,19.7470353 11.0661058,20.3675481 11.0661058,21.1572917 L11.0661058,21.1572917 L11.0661058,24.8239583 C11.0661058,25.6137019 11.6866186,26.2342147 12.4763622,26.2342147 C13.2379006,26.2342147 13.8866186,25.5854968 13.8866186,24.8239583 L13.8866186,24.8239583 L13.8866186,21.1572917 C13.8866186,20.3675481 13.2661058,19.7470353 12.4763622,19.7470353 Z M12.4763622,9.56498397 C11.6866186,9.56498397 11.0661058,10.1854968 11.0661058,10.9752404 L11.0661058,10.9752404 L11.0661058,14.6419071 C11.0661058,15.4316506 11.6866186,16.0521635 12.4763622,16.0521635 C13.2379006,16.0521635 13.8866186,15.4316506 13.8866186,14.6419071 L13.8866186,14.6419071 L13.8866186,10.9752404 C13.8866186,10.1854968 13.2661058,9.56498397 12.4763622,9.56498397 Z" id="形状结合"></path>
                        </g>
                    </g>
                </g>
            </g>
        </g>
    </g>
</svg>