<?xml version="1.0" encoding="UTF-8"?>
<svg width="30px" height="30px" viewBox="0 0 30 30" version="1.1" xmlns="http://www.w3.org/2000/svg" xmlns:xlink="http://www.w3.org/1999/xlink">
    <!-- Generator: Sketch 60 (88103) - https://sketch.com -->
    <title>图标/侧边栏列表/使用协议</title>
    <desc>Created with Sketch.</desc>
    <g id="组件" stroke="none" stroke-width="1" fill="none" fill-rule="evenodd">
        <g id="图标/列表/协议">
            <g id="图标/侧边栏列表/隐私协议">
                <rect id="矩形" fill="#D8D8D8" opacity="0" x="0" y="0" width="30" height="30"></rect>
                <g id="优惠券" transform="translate(4.000000, 3.000000)">
                    <rect id="矩形" stroke="#787879" stroke-width="1.5" x="0.75" y="0.75" width="20.5" height="22.5" rx="3"></rect>
                    <path d="M8.75,15 C9.16421356,15 9.5,15.3357864 9.5,15.75 C9.5,16.1642136 9.16421356,16.5 8.75,16.5 L4.25,16.5 C3.83578644,16.5 3.5,16.1642136 3.5,15.75 C3.5,15.3357864 3.83578644,15 4.25,15 L8.75,15 Z M14.75,11 C15.1642136,11 15.5,11.3357864 15.5,11.75 C15.5,12.1642136 15.1642136,12.5 14.75,12.5 L4.25,12.5 C3.83578644,12.5 3.5,12.1642136 3.5,11.75 C3.5,11.3357864 3.83578644,11 4.25,11 L14.75,11 Z M17.75,7 C18.1642136,7 18.5,7.33578644 18.5,7.75 C18.5,8.16421356 18.1642136,8.5 17.75,8.5 L4.25,8.5 C3.83578644,8.5 3.5,8.16421356 3.5,7.75 C3.5,7.33578644 3.83578644,7 4.25,7 L17.75,7 Z" id="形状结合" fill="#787879"></path>
                </g>
            </g>
        </g>
    </g>
</svg>