<?xml version="1.0" encoding="UTF-8"?>
<svg width="45px" height="44px" viewBox="0 0 45 44" version="1.1" xmlns="http://www.w3.org/2000/svg" xmlns:xlink="http://www.w3.org/1999/xlink">
    <!-- Generator: Sketch 60 (88103) - https://sketch.com -->
    <title>积分历史</title>
    <desc>Created with Sketch.</desc>
    <defs>
        <path d="M30.7558528,0 L6.47491639,0 C2.91371237,0 0,2.93333333 0,6.51851852 L0,37.4814815 C0,41.0666667 2.91371237,44 6.47491639,44 L24.3618729,44 C26.0615385,44 27.6802676,43.3481481 28.9752508,42.1259259 L35.3692308,35.6888889 C36.5832776,34.4666667 37.2307692,32.837037 37.2307692,31.0444444 L37.2307692,6.51851852 C37.2307692,2.93333333 34.3170569,0 30.7558528,0 Z" id="path-1"></path>
    </defs>
    <g id="整合" stroke="none" stroke-width="1" fill="none" fill-rule="evenodd">
        <g id="积分历史" transform="translate(-213.000000, -1250.000000)">
            <g id="tab-bar" transform="translate(0.000000, 1236.000000)">
                <g id="编组-4" transform="translate(198.375000, 14.000000)">
                    <g id="积分历史" transform="translate(15.125000, 0.000000)">
                        <rect id="矩形" stroke="#979797" stroke-width="0.846153846" fill="#D8D8D8" opacity="0" x="0" y="0" width="44" height="44"></rect>
                        <g id="历史" transform="translate(3.384615, 0.000000)">
                            <mask id="mask-2" fill="white">
                                <use xlink:href="#path-1"></use>
                            </mask>
                            <use id="形状" fill="#0069B8" fill-rule="nonzero" xlink:href="#path-1"></use>
                            <path d="M31.4772858,33.1822803 L39.5489364,40.7092163 L39.5489364,40.7092163 L18.1254311,41.2969027 L25.4977194,33.3910914 C27.0912695,31.6822181 29.7684126,31.5887302 31.4772858,33.1822803 Z" id="三角形" fill="#7CB9E8" mask="url(#mask-2)" transform="translate(28.837184, 35.796903) rotate(-43.000000) translate(-28.837184, -35.796903) "></path>
                            <path d="M11.6923077,14.2435897 L25.5384615,14.2435897 C26.3846154,14.2435897 27.0769231,13.5137821 27.0769231,12.6217949 C27.0769231,11.7298077 26.3846154,11 25.5384615,11 L11.6923077,11 C10.8461538,11 10.1538462,11.7298077 10.1538462,12.6217949 C10.1538462,13.5137821 10.8461538,14.2435897 11.6923077,14.2435897 Z M17.8461538,27.2179487 L11.6923077,27.2179487 C10.8461538,27.2179487 10.1538462,27.9477564 10.1538462,28.8397436 C10.1538462,29.7317308 10.8461538,30.4615385 11.6923077,30.4615385 L17.8461538,30.4615385 C18.6923077,30.4615385 19.3846154,29.7317308 19.3846154,28.8397436 C19.3846154,27.9477564 18.6923077,27.2179487 17.8461538,27.2179487 Z M11.6923077,22.3525641 L25.5384615,22.3525641 C26.3846154,22.3525641 27.0769231,21.6227564 27.0769231,20.7307692 C27.0769231,19.8387821 26.3846154,19.1089744 25.5384615,19.1089744 L11.6923077,19.1089744 C10.8461538,19.1089744 10.1538462,19.8387821 10.1538462,20.7307692 C10.1538462,21.6227564 10.8461538,22.3525641 11.6923077,22.3525641 Z" id="形状" fill="#FFFFFF" fill-rule="nonzero" mask="url(#mask-2)"></path>
                        </g>
                    </g>
                </g>
            </g>
        </g>
    </g>
</svg>