<?xml version="1.0" encoding="UTF-8"?>
<svg width="74px" height="88px" viewBox="0 0 74 88" version="1.1" xmlns="http://www.w3.org/2000/svg" xmlns:xlink="http://www.w3.org/1999/xlink">
    <!-- Generator: Sketch 52.5 (67469) - http://www.bohemiancoding.com/sketch -->
    <title>餐饮</title>
    <desc>Created with Sketch.</desc>
    <g id="Page-2-Copy-2" stroke="none" stroke-width="1" fill="none" fill-rule="evenodd">
        <g id="1.1home-" transform="translate(-227.000000, -984.000000)" fill="#B1D9E6" fill-rule="nonzero">
            <g id="餐饮" transform="translate(227.000000, 984.000000)">
                <path d="M16.1339715,88 C13.8068062,88 8.43011722,86.9208429 8.04746256,84.1781477 C9.38284936,71.43864 11.3976435,51.7644767 12.0380044,44 C12.1824761,42.2468567 10.6479526,41.0157605 10.3277721,40.7820081 C4.31462688,38.097751 0,30.0138126 0,21.0455109 C0,9.42022313 7.22358354,0 16.1339715,0 C25.0443594,0 32.267943,9.42022313 32.267943,21.0455109 C32.267943,30.064459 28.2734965,38.3587746 22.0768332,40.7001948 C21.8113177,40.8014875 20.1245134,42.3286701 20.2806989,44 C20.9601062,51.4722862 23.021756,71.9139367 24.2048618,84.1781477 C23.8222072,87.0610944 18.4611367,88 16.1339715,88 Z M40.7995809,3.67770495 C40.8073902,1.22330438 41.9241172,0 44.1458572,0 C46.3715018,0 47.4843242,1.22720028 47.4843242,3.67770495 L47.4843242,25.4166814 C47.4843242,26.0672923 47.9528809,26.4568797 48.4214377,26.4568797 C48.8821852,26.4568797 49.3273142,26.2075438 49.3273142,25.4127855 L49.3273142,3.67770495 C49.3663606,1.22330438 50.4869922,0 52.6931136,0 C54.8953304,0 55.9964388,1.22720028 55.9964388,3.67770495 L56.0120574,25.4166814 C56.0120574,26.1023552 56.3166193,26.449088 56.9335524,26.449088 C57.5504854,26.449088 57.858952,26.1023553 57.858952,25.4127855 L57.858952,3.67770495 C57.8706659,1.22330438 58.9834882,0 61.2091329,0 C63.4347776,0 64.5475999,1.22720028 64.5475999,3.67770495 L64.5475999,25.4166814 C64.5475999,26.110147 64.8521618,26.4529838 65.4690949,26.449088 C66.0782188,26.4335045 66.3866853,26.0906677 66.3866852,25.4127855 L66.3866852,3.67770495 C66.3866852,1.22330438 67.4956029,0 69.7251522,0 C71.9547016,0 73.0714285,1.22720028 73.0714286,3.67770495 L73.0714286,25.2998052 C73.0714286,32.87728 68.99108,38.467859 65.6721362,40.259961 C63.7198163,40.9806977 61.1076123,42.0325836 61.3575093,43.9805207 C63.0638368,60.8886134 64.0712339,71.1776165 65.3831928,84.2911281 C65.3831928,85.1482204 62.5328058,87.9649372 57.1248797,87.9649371 C52.8336806,87.9649371 49.4756904,85.7832478 49.2336028,84.2911281 C50.412804,71.6295378 52.3377914,52.6683195 53.1538611,43.9805207 C53.1538611,42.270232 51.5451495,41.3196388 49.2336028,40.291128 C44.0911922,38.0159377 40.7995809,32.8772799 40.7995809,25.2998052 L40.7995809,3.67770495 Z" id="形状"></path>
            </g>
        </g>
    </g>
</svg>