<?xml version="1.0" standalone="no"?><!DOCTYPE svg PUBLIC "-//W3C//DTD SVG 1.1//EN" "http://www.w3.org/Graphics/SVG/1.1/DTD/svg11.dtd"><svg t="1588299500906" class="icon" viewBox="0 0 1024 1024" version="1.1" xmlns="http://www.w3.org/2000/svg" p-id="3288" xmlns:xlink="http://www.w3.org/1999/xlink" width="200" height="200"><defs><style type="text/css"></style></defs><path d="M791.314 398.881h-26.69v-109.045c0-139.291-113.333-252.625-252.642-252.625-139.274 0-252.607 113.333-252.607 252.625v109.045h-26.69c-60.525 0-109.761 49.235-109.761 109.761v368.388c0 60.525 49.235 109.761 109.761 109.761h558.629c60.525 0 109.761-49.235 109.761-109.761v-368.388c0.001-60.525-49.234-109.761-109.761-109.761zM332.548 289.834c0-98.953 80.498-179.452 179.433-179.452 98.971 0 179.469 80.498 179.469 179.452v109.045h-358.901v-109.045zM827.901 877.029c0 20.17-16.4 36.587-36.587 36.587h-558.629c-20.187 0-36.587-16.418-36.587-36.587v-368.388c0-20.17 16.4-36.587 36.587-36.587h558.629c20.187 0 36.587 16.418 36.587 36.587v368.388z" p-id="3289" fill="#8a8a8a"></path><path d="M431.834 692.839c0 44.273 35.89 80.164 80.164 80.164 44.273 0 80.164-35.89 80.164-80.164 0-44.273-35.89-80.164-80.164-80.164-44.273 0-80.164 35.89-80.164 80.164z" p-id="3290" fill="#8a8a8a"></path></svg>