<?xml version="1.0" standalone="no"?><!DOCTYPE svg PUBLIC "-//W3C//DTD SVG 1.1//EN" "http://www.w3.org/Graphics/SVG/1.1/DTD/svg11.dtd"><svg t="1577510184133" class="icon" viewBox="0 0 1449 1024" version="1.1" xmlns="http://www.w3.org/2000/svg" p-id="11560" xmlns:xlink="http://www.w3.org/1999/xlink" width="283.0078125" height="200"><defs><style type="text/css"></style></defs><path d="M1029.568284 425.518721 804.58519 425.518721 804.58519 199.601559c0-14.126273-11.463405-25.589679-25.606881-25.589679l-32.60293 0c-14.126273 0-25.615482 11.463405-25.615482 25.589679l0 225.917162-226.877033 0c-14.126273 0-25.589679 11.473727-25.589679 25.60344l0 32.630453c0 14.115952 11.449644 25.60344 25.589679 25.60344l226.877033 0 0 225.929203c0 14.127994 11.463405 25.589679 25.615482 25.589679l32.60293 0c14.143475 0 25.606881-11.461685 25.606881-25.589679L804.58519 509.357774l224.983094 0c14.127994 0 25.589679-11.461685 25.589679-25.60344L1055.157963 451.122161C1055.157963 436.994167 1043.694557 425.518721 1029.568284 425.518721z" p-id="11561" fill="#2699f8"></path></svg>