<?xml version="1.0" standalone="no"?><!DOCTYPE svg PUBLIC "-//W3C//DTD SVG 1.1//EN" "http://www.w3.org/Graphics/SVG/1.1/DTD/svg11.dtd"><svg t="1578830248226" class="icon" viewBox="0 0 1024 1024" version="1.1" xmlns="http://www.w3.org/2000/svg" p-id="1124" width="32" height="32" xmlns:xlink="http://www.w3.org/1999/xlink"><defs><style type="text/css"></style></defs><path d="M816.3 295.4h-37.1v-0.3h-81.9v-65.7c0-19.2-15.6-34.8-34.8-34.8h-299c-19.2 0-34.8 15.6-34.8 34.8v65.7h-81.9v0.3h-37.1c-11.3 0-20.5 9.2-20.5 20.5s9.2 20.5 20.5 20.5h37.1V797c0 19.2 15.6 34.8 34.8 34.8h462.8c19.2 0 34.8-15.6 34.8-34.8V336.4h37.1c11.3 0 20.5-9.2 20.5-20.5s-9.1-20.5-20.5-20.5z m-446.7-59.8h286.7v59.6H369.6v-59.6z m368.7 555.3H287.7V336.4h450.5v454.5z" fill="#ffffff" p-id="1125"></path><path d="M424.3 702.7c11.3 0 20.5-9.2 20.5-20.5V417.7c0-11.3-9.2-20.5-20.5-20.5s-20.5 9.2-20.5 20.5v264.5c0 11.3 9.1 20.5 20.5 20.5zM601.7 702.7c11.3 0 20.5-9.2 20.5-20.5V417.7c0-11.3-9.2-20.5-20.5-20.5s-20.5 9.2-20.5 20.5v264.5c0.1 11.3 9.2 20.5 20.5 20.5z" fill="#ffffff" p-id="1126"></path></svg>