<?xml version="1.0" standalone="no"?><!DOCTYPE svg PUBLIC "-//W3C//DTD SVG 1.1//EN" "http://www.w3.org/Graphics/SVG/1.1/DTD/svg11.dtd"><svg t="1578220802495" class="icon" viewBox="0 0 1024 1024" version="1.1" xmlns="http://www.w3.org/2000/svg" p-id="1764" xmlns:xlink="http://www.w3.org/1999/xlink" width="200" height="200"><defs><style type="text/css"></style></defs><path d="M494.913264 0l34.034995 0c59.032926 2.745437 117.855127 14.178739 172.733772 36.419191 114.435372 45.281656 211.019379 133.581185 266.608467 243.356538 35.335466 68.792474 54.05381 145.755033 55.703481 223.018627l0 18.345061c-1.631609 76.264158-19.832173 152.21524-54.318721 220.339417-33.583443 67.100659-82.296896 126.512888-141.239511 172.938476-60.297272 47.557479-131.45588 81.29746-206.509878 97.637629-30.482785 6.875635-61.645908 10.078645-92.784948 11.93904L495.081844 1023.993979c-40.82032-2.16143-81.55635-7.658325-120.925682-18.880903-95.319661-26.424835-182.354845-81.484102-247.35428-155.996237-45.721167-52.018815-80.617121-113.520226-101.960489-179.416745C9.223706 621.775353 1.258325 571.520602 0 521.1635l0-18.308937C1.824271 409.371214 29.32079 316.507996 79.720038 237.679022c53.439699-84.217498 131.937535-152.353716 223.078833-192.975353C363.102164 17.279398 428.854186 2.986265 494.913264 0L494.913264 0 494.913264 0zM397.179304 109.221449c-32.445532 40.760113-53.626341 89.08222-70.815428 137.916087 24.136971 6.062841 48.918156 8.699906 73.476576 12.402634 30.458702 3.142803 60.995673 5.918344 91.659078 6.153151C491.469426 191.434055 491.517592 117.18683 491.469426 42.89746 452.49746 51.11571 421.153716 78.696519 397.179304 109.221449L397.179304 109.221449 397.179304 109.221449zM532.49445 265.681279c41.440452-0.746566 82.862841-4.184384 123.803575-10.825212 13.92587-1.770085 27.719285-4.383067 41.3381-7.760677-20.121167-57.160489-46.040263-114.07413-88.55842-158.235936-20.783443-21.782879-46.696519-39.640263-76.523048-45.961994C532.446284 117.162747 532.542615 191.422013 532.49445 265.681279L532.49445 265.681279 532.49445 265.681279zM356.726246 67.263217c-72.404892 25.232738-138.445908 68.533584-190.422578 124.911383 38.020696 20.085042 78.756726 34.932079 120.353716 45.588711 21.722672-65.481091 52.199436-130.239699 101.304233-179.784008C377.274882 60.080527 367.015616 63.801317 356.726246 67.263217L356.726246 67.263217 356.726246 67.263217zM635.833678 57.678269c10.217121 9.42841 18.441392 20.681091 27.364064 31.259454 33.457008 44.703669 56.859454 96.096331 74.241204 148.939981 41.572907-10.843274 82.194544-25.756538 120.377799-45.570649C798.380433 127.879586 720.617121 80.237817 635.833678 57.678269L635.833678 57.678269 635.833678 57.678269zM138.993791 224.198683C80.153528 300.577234 45.239511 395.132267 41.494638 491.559737c68.244591-0.120414 136.489182-0.042145 204.71571-0.042145 1.318532-72.242333 10.590405-144.400376 28.760865-214.360865C227.829163 264.760113 181.819003 247.552963 138.993791 224.198683L138.993791 224.198683 138.993791 224.198683zM749.010724 277.156726c18.188523 69.960489 27.442333 142.118532 28.742803 214.342803 68.280715-0.018062 136.555409 0 204.830103 0-4.009784-96.403387-38.676952-191.018627-97.685795-267.342992C842.199059 247.673377 796.074506 264.64572 749.010724 277.156726L749.010724 277.156726 749.010724 277.156726zM287.13302 491.33095c68.130198 0.361242 136.248354 0.066228 204.360489 0.162559L491.493509 306.640075c-59.297836-1.101787-118.637817-7.26096-176.611101-19.958608C297.259831 353.420884 288.656256 422.375917 287.13302 491.33095L287.13302 491.33095 287.13302 491.33095zM532.49445 306.622013c0 61.639887 0 123.255691 0.024083 184.877516 68.118156-0.126435 136.236312 0.222766 204.354468-0.180621-1.541298-68.961054-10.144873-137.922107-27.755409-204.679586C651.15635 299.41524 591.798307 305.520226 532.49445 306.622013L532.49445 306.622013 532.49445 306.622013zM41.464534 532.470367c3.835183 96.427469 38.682973 190.982502 97.55936 267.361054 42.771025-23.420508 88.853434-40.513264 135.95936-53.000188-18.194544-69.954468-27.382126-142.130574-28.809031-214.360865C177.941675 532.512512 109.697084 532.512512 41.464534 532.470367L41.464534 532.470367 41.464534 532.470367zM287.163123 532.638946c1.517215 68.973095 10.018438 138.024459 27.809595 204.757855 57.907056-12.920414 117.265099-18.880903 176.496707-20.018815 0.024083-61.615804 0.024083-123.261712 0.024083-184.871496C423.381373 532.596802 355.263217 532.313829 287.163123 532.638946L287.163123 532.638946 287.163123 532.638946zM532.49445 532.50047l0 184.853434c59.339981 1.083725 118.679962 7.321167 176.677328 19.940546 17.369708-66.85381 26.545249-135.844967 27.454374-204.902352C668.580245 532.638946 600.540357 532.446284 532.49445 532.50047L532.49445 532.50047 532.49445 532.50047zM777.741486 532.50047c-1.198119 72.21223-10.584384 144.370273-28.706679 214.336783 47.075823 12.420696 93.14619 29.513452 135.905174 52.982126 58.990781-76.300282 93.639887-170.921543 97.649671-267.294826C914.308937 532.470367 846.016181 532.512512 777.741486 532.50047L777.741486 532.50047 777.741486 532.50047zM326.4 776.760113c19.940546 57.298965 46.052305 114.260771 88.600564 158.452681 20.75334 21.740734 46.672437 39.580056 76.474882 45.847601 0.066228-74.223142 0-148.476388 0.024083-222.741675C436.073001 759.414487 380.616369 765.0619 326.4 776.760113L326.4 776.760113 326.4 776.760113zM532.49445 758.294638c0.024083 74.253246-0.042145 148.542615 0.048166 222.78984 38.893697-8.21223 70.213358-35.696707 94.151646-66.173471 32.505738-40.814299 53.812982-89.196613 70.91778-138.150894-24.853434-6.002634-50.278833-8.898589-75.535654-12.565193C592.279962 761.292944 562.453434 758.481279 532.49445 758.294638L532.49445 758.294638 532.49445 758.294638zM166.219379 831.711007c59.41825 64.379304 137.139417 112.081279 221.892756 134.544497-49.098777-49.658702-79.756162-114.41731-101.442709-180.030856C244.976105 796.730762 204.438758 812.005268 166.219379 831.711007L166.219379 831.711007 166.219379 831.711007zM737.402822 786.176482c-21.825024 65.655691-52.422201 130.498589-101.629351 180.217498 84.705174-22.65588 162.480527-70.171214 221.92286-134.5746C819.71778 811.698213 778.957667 796.965569 737.402822 786.176482L737.402822 786.176482 737.402822 786.176482zM737.402822 786.176482" fill="" p-id="1765"></path></svg>