<?xml version="1.0" standalone="no"?><!DOCTYPE svg PUBLIC "-//W3C//DTD SVG 1.1//EN" "http://www.w3.org/Graphics/SVG/1.1/DTD/svg11.dtd"><svg t="1586353265273" class="icon" viewBox="0 0 1024 1024" version="1.1" xmlns="http://www.w3.org/2000/svg" p-id="4720" xmlns:xlink="http://www.w3.org/1999/xlink" width="200" height="200"><defs><style type="text/css"></style></defs><path d="M482.742857 599.771429c14.628571 14.628571 36.571429 14.628571 51.2 0L768 365.714286c14.628571-14.628571 14.628571-36.571429 0-51.2s-36.571429-14.628571-51.2-7.314286L512 526.628571 307.2 321.828571c-14.628571-14.628571-36.571429-14.628571-51.2 0-14.628571 14.628571-14.628571 36.571429 0 51.2l226.742857 226.742858zM716.8 512L512 724.114286 307.2 519.314286c-14.628571-14.628571-36.571429-14.628571-51.2 0-14.628571 14.628571-14.628571 36.571429 0 51.2l226.742857 226.742857c14.628571 7.314286 36.571429 7.314286 51.2-7.314286l234.057143-234.057143c14.628571-14.628571 14.628571-36.571429 0-51.2-14.628571-14.628571-36.571429-7.314286-51.2 7.314286z" p-id="4721" fill="#2f74bb"></path></svg>