<?xml version="1.0" standalone="no"?><!DOCTYPE svg PUBLIC "-//W3C//DTD SVG 1.1//EN" "http://www.w3.org/Graphics/SVG/1.1/DTD/svg11.dtd"><svg t="1586353180120" class="icon" viewBox="0 0 1024 1024" version="1.1" xmlns="http://www.w3.org/2000/svg" p-id="2574" xmlns:xlink="http://www.w3.org/1999/xlink" width="200" height="200"><defs><style type="text/css"></style></defs><path d="M511.4 891.3c-6.3 0-12.5-2.4-17.3-7.2L384 774.3c-9.6-9.6-9.6-25.1 0-34.6 9.6-9.6 25.1-9.6 34.6 0l92.8 92.6 304.9-305c39.4-39.4 60.7-92.2 59.6-148.1-1-49.8-20.2-97.6-54-134.2-78.6-85-211.9-87.1-293.3-6.2-9.6 9.5-25 9.5-34.5 0-79.4-79-208.5-78.8-287.7 0.4-38.5 38.5-59.7 89.8-59.7 144.3 0.1 54.5 22.4 106.6 60.9 145.1L267 588c9.7 9.7 9.9 25.8 0 35.4-9.6 9.2-24.8 9.1-34.3-0.3L171.6 562c-47.7-47.7-74-111.2-74-178.7 0-67.5 26.3-131 74-178.7 92.7-92.7 240.4-98.1 339.6-16.1 99.2-82 246.9-76.5 339.6 16.1 47.7 47.7 74 111.2 74 178.7 0 67.5-26.3 131-74 178.7L528.7 884.2c-4.8 4.8-11 7.1-17.3 7.1z" fill="#eb6282" p-id="2575"></path><path d="M344.1 724.1c-6.3 0-12.5-2.4-17.3-7.2l-28.7-28.7c-9.6-9.6-9.6-25.1 0-34.6 9.6-9.6 25.1-9.6 34.6 0l28.7 28.7c9.6 9.6 9.6 25.1 0 34.6-4.8 4.8-11.1 7.2-17.3 7.2z" fill="#eb6282" p-id="2576"></path><path d="M817.2 527.3c39.4-39.4 60.7-92.2 59.6-148.1-1-49.8-20.2-97.6-54-134.2-78.6-85-211.9-87.1-293.3-6.2-9.6 9.5-25 9.5-34.5 0-43.1-42.9-100.8-62.4-157.2-58.7-18.3 12.9-35.1 27-49.9 41.7-89.1 89.1-89.1 233.6 0 322.7l256 256 273.3-273.2z" fill="#eb6282" p-id="2577"></path></svg>