<?xml version="1.0" standalone="no"?><!DOCTYPE svg PUBLIC "-//W3C//DTD SVG 1.1//EN" "http://www.w3.org/Graphics/SVG/1.1/DTD/svg11.dtd"><svg t="1571193346198" class="icon" viewBox="0 0 1024 1024" version="1.1" xmlns="http://www.w3.org/2000/svg" p-id="5691" xmlns:xlink="http://www.w3.org/1999/xlink" width="200" height="200"><defs><style type="text/css"></style></defs><path d="M512.6336 972c-261.96-0.3216-474.2448-212.6064-474.5664-474.5664 0-20.16 16.344-36.504 36.504-36.504h876.12a36.504 36.504 0 0 1 36.504 36.504C987.2 759.1008 774.3008 972 512.6336 972z m-399.9504-438.0624c18.4704 204.432 190.776 365.0496 399.9504 365.0496s381.48-160.6176 399.9504-365.0496H112.6832z" fill="#666666" p-id="5692"></path><path d="M914.1872 606.9504H111.0752a36.4992 36.4992 0 0 0 0 73.0032h803.112a36.504 36.504 0 0 0 0-73.0032zM731.6672 22.8672a36.6048 36.6048 0 0 0-31.6176 18.2544l-182.52 316.1328a36.504 36.504 0 0 0 63.1488 36.504l182.5248-316.1328a36.5088 36.5088 0 0 0-31.536-54.7584z m219.0288 0a36.6624 36.6624 0 0 0-25.848 10.6608l-258.0912 258.1632a36.5088 36.5088 0 0 0 51.6192 51.6192l258.1632-258.1632a36.4944 36.4944 0 0 0-0.0864-51.624 36.4416 36.4416 0 0 0-25.7568-10.656z" fill="#fecb34" p-id="5693"></path></svg>